SplineFontDB: 3.0
FontName: rsfs10
FullName: rsfs10
FamilyName: rsfs10
Weight: Book
Copyright: Copyright (c) Taco Hoekwater, 1998. All rights reserved.
Version: 001.001
ItalicAngle: -12
UnderlinePosition: -102.4
UnderlineWidth: 51.2
Ascent: 819
Descent: 205
sfntRevision: 0x00010041
LayerCount: 2
Layer: 0 1 "Back"  1
Layer: 1 1 "Fore"  0
XUID: [1021 99 1815243471 4285642]
FSType: 0
OS2Version: 1
OS2_WeightWidthSlopeOnly: 0
OS2_UseTypoMetrics: 1
CreationTime: 893413860
ModificationTime: 1421634559
PfmFamily: 17
TTFWeight: 400
TTFWidth: 5
LineGap: 92
VLineGap: 0
Panose: 2 0 5 3 0 0 0 0 0 0
OS2TypoAscent: 0
OS2TypoAOffset: 1
OS2TypoDescent: 0
OS2TypoDOffset: 1
OS2TypoLinegap: 92
OS2WinAscent: 0
OS2WinAOffset: 1
OS2WinDescent: 0
OS2WinDOffset: 1
HheadAscent: 0
HheadAOffset: 1
HheadDescent: 0
HheadDOffset: 1
OS2SubXSize: 666
OS2SubYSize: 716
OS2SubXOff: 30
OS2SubYOff: 143
OS2SupXSize: 666
OS2SupYSize: 716
OS2SupXOff: -101
OS2SupYOff: 490
OS2StrikeYSize: 50
OS2StrikeYPos: 264
OS2Vendor: 'PfEd'
OS2CodePages: 00000001.00000000
OS2UnicodeRanges: 80000001.00000000.00000000.00000000
Lookup: 258 0 0 "'kern' Horizontal Kerning in Latin lookup 0"  {"'kern' Horizontal Kerning in Latin lookup 0 subtable"  } ['kern' ('latn' <'dflt' > ) ]
MarkAttachClasses: 1
DEI: 91125
ShortTable: maxp 16
  1
  0
  30
  171
  4
  0
  0
  2
  0
  1
  1
  0
  64
  0
  0
  0
EndShort
LangName: 1033 "" "" "LyX" "FontForge 2.0 : rsfs10 : 17-7-2010" 
GaspTable: 1 65535 2 0
Encoding: UnicodeBmp
UnicodeInterp: none
NameList: Adobe Glyph List
DisplaySize: -48
AntiAlias: 1
FitToEm: 1
WinInfo: 64 16 10
BeginPrivate: 0
EndPrivate
BeginChars: 65539 30

StartChar: A
Encoding: 65 65 3
Width: 822
GlyphClass: 2
Flags: W
LayerCount: 2
Fore
SplineSet
757 152 m 1,0,1
 758 155 758 155 763 155 c 0,2,3
 765 155 765 155 766 154 c 0,4,5
 771 152 771 152 771 145 c 2,6,-1
 771 143 l 1,7,8
 769 137 769 137 767 135 c 0,9,10
 694 59 694 59 605 47 c 1,11,-1
 579 4 l 2,12,13
 577 0 577 0 571 0 c 2,14,-1
 498 0 l 2,15,16
 494 0 494 0 493 2 c 1,17,18
 489 4 489 4 488 8 c 0,19,20
 488 11 488 11 490 13 c 2,21,-1
 515 48 l 1,22,23
 400 56 400 56 325 87 c 1,24,25
 215 -8 215 -8 123 -8 c 0,26,27
 83 -8 83 -8 59.5 8.5 c 128,-1,28
 36 25 36 25 36 53 c 0,29,30
 36 80 36 80 58 113 c 0,31,32
 78 143 78 143 117 142 c 0,33,34
 151 142 151 142 151 108 c 0,35,36
 151 94 151 94 132.5 81 c 128,-1,37
 114 68 114 68 93 68 c 0,38,39
 75 68 75 68 66 80 c 1,40,41
 61 70 61 70 60 56 c 0,42,43
 60 14 60 14 127 14 c 0,44,45
 204 14 204 14 300 98 c 1,46,47
 194 149 194 149 194 244 c 0,48,49
 194 316 194 316 257 406 c 0,50,51
 277 435 277 435 315 450.5 c 128,-1,52
 353 466 353 466 389 466 c 0,53,54
 513 466 513 466 573 395 c 1,55,56
 652 468 652 468 801 581 c 1,57,-1
 987 716 l 1,58,-1
 997 730 l 2,59,60
 1001 734 1001 734 1005 734 c 2,61,-1
 1016 734 l 2,62,63
 1017 734 1017 734 1021 732 c 0,64,65
 1024 731 1024 731 1024 725 c 0,66,67
 1024 722 1024 722 1023 721 c 2,68,-1
 621 73 l 1,69,70
 695 89 695 89 757 152 c 1,0,1
623 201 m 1,71,-1
 943 653 l 1,72,-1
 822 566 l 1,73,74
 680 461 680 461 588 376 c 1,75,76
 624 320 624 320 624 232 c 0,77,78
 624 211 624 211 623 201 c 1,71,-1
299 383 m 0,79,80
 243 303 243 303 243 240 c 0,81,82
 243 165 243 165 324 120 c 1,83,84
 355 151 355 151 379 184 c 0,85,86
 447 280 447 280 553 377 c 1,87,88
 500 444 500 444 385 443 c 0,89,90
 367 443 367 443 341.5 425.5 c 128,-1,91
 316 408 316 408 299 383 c 0,79,80
403 174 m 0,92,93
 379 140 379 140 347 109 c 1,94,95
 419 77 419 77 530 71 c 1,96,-1
 590 154 l 1,97,98
 596 194 596 194 596 229 c 0,99,100
 596 307 596 307 566 357 c 1,101,102
 465 262 465 262 403 174 c 0,92,93
EndSplineSet
EndChar

StartChar: B
Encoding: 66 66 4
Width: 929
GlyphClass: 2
Flags: W
LayerCount: 2
Fore
SplineSet
657 725 m 0,0,1
 794 725 794 725 869 682 c 1,2,-1
 923 716 l 2,3,4
 924 717 924 717 927 717 c 0,5,6
 934 717 934 717 936 711 c 2,7,-1
 938 700 l 2,8,9
 938 697 938 697 934 693 c 1,10,11
 912 679 912 679 896 665 c 1,12,13
 902 660 902 660 912 649 c 0,14,15
 950 611 950 611 950 561 c 0,16,17
 950 514 950 514 913 461 c 0,18,19
 873 405 873 405 808 360 c 1,20,21
 841 341 841 341 854 311 c 1,22,23
 865 288 865 288 865 262 c 0,24,25
 865 206 865 206 818 138 c 1,26,27
 773 76 773 76 706 35 c 0,28,29
 635 -8 635 -8 577 -8 c 0,30,31
 512 -8 512 -8 498 40 c 0,32,33
 496 46 496 46 496 59 c 0,34,35
 496 100 496 100 529 148 c 0,36,37
 552 181 552 181 603 204 c 0,38,39
 652 227 652 227 702 226 c 0,40,41
 710 226 710 226 711 218 c 0,42,43
 711 214 711 214 710 213 c 2,44,-1
 706 207 l 2,45,46
 703 204 703 204 698 204 c 0,47,48
 655 204 655 204 611 185 c 1,49,50
 567 165 567 165 549 138 c 0,51,52
 518 95 518 95 518 62 c 0,53,54
 518 56 518 56 520 48 c 0,55,56
 528 14 528 14 581 14 c 0,57,58
 623 14 623 14 675 52 c 0,59,60
 718 84 718 84 765 148 c 0,61,62
 817 221 817 221 817 276 c 0,63,64
 817 286 817 286 813 301 c 0,65,66
 804 329 804 329 779 342 c 1,67,68
 709 304 709 304 655 304 c 0,69,70
 625 304 625 304 608 310 c 1,71,-1
 537 210 l 2,72,73
 472 119 472 119 367 52.5 c 128,-1,74
 262 -14 262 -14 175 -14 c 0,75,76
 115 -14 115 -14 75 6 c 128,-1,77
 35 26 35 26 35 63 c 0,78,79
 35 92 35 92 59 127 c 0,80,81
 79 157 79 157 118 157 c 0,82,83
 152 157 152 157 152 122 c 0,84,85
 152 108 152 108 133.5 95 c 128,-1,86
 115 82 115 82 94.5 82 c 128,-1,87
 74 82 74 82 65 97 c 1,88,89
 57 79 57 79 56 68 c 0,90,91
 56 38 56 38 90 23 c 128,-1,92
 124 8 124 8 179 8 c 0,93,94
 239 8 239 8 312.5 70 c 128,-1,95
 386 132 386 132 449 220 c 0,96,97
 524 325 524 325 565.5 381 c 128,-1,98
 607 437 607 437 685.5 521 c 128,-1,99
 764 605 764 605 842 663 c 1,100,101
 777 703 777 703 653 702 c 0,102,103
 544 702 544 702 427 643 c 0,104,105
 310 585 310 585 249 497 c 0,106,107
 194 419 194 419 194 365 c 0,108,109
 194 357 194 357 195 352 c 0,110,111
 202 298 202 298 270 298 c 0,112,113
 311 298 311 298 358 327 c 1,114,115
 398 353 398 353 431 399 c 0,116,117
 459 439 459 439 473.5 462 c 128,-1,118
 488 485 488 485 502 514.5 c 128,-1,119
 516 544 516 544 516 564 c 2,120,-1
 516 572 l 2,121,122
 516 577 516 577 521 580 c 0,123,124
 524 582 524 582 530 584 c 1,125,126
 539 584 539 584 540 575 c 0,127,128
 542 557 542 557 542 548 c 0,129,130
 542 469 542 469 484 389 c 0,131,132
 450 342 450 342 387 308 c 0,133,134
 324 275 324 275 266 275 c 0,135,136
 225 275 225 275 199.5 293.5 c 128,-1,137
 174 312 174 312 169 346 c 0,138,139
 167 358 167 358 167 366 c 0,140,141
 167 427 167 427 223 507 c 0,142,143
 288 597 288 597 415 662 c 0,144,145
 540 725 540 725 657 725 c 0,0,1
700 384 m 0,146,147
 740 384 740 384 771 375 c 1,148,149
 817 411 817 411 859 471 c 0,150,151
 897 525 897 525 897 571 c 0,152,153
 897 612 897 612 869 640 c 1,154,155
 790 559 790 559 659 381 c 1,156,157
 681 384 681 384 700 384 c 0,146,147
656 339 m 0,158,159
 654 336 654 336 651.5 332.5 c 128,-1,160
 649 329 649 329 648 328 c 1,161,162
 650 327 650 327 659 327 c 0,163,164
 696 327 696 327 744 356 c 1,165,166
 720 361 720 361 696 361 c 0,167,168
 680 361 680 361 669 355 c 1,169,170
 664 351 664 351 656 339 c 0,158,159
EndSplineSet
PairPos2: "'kern' Horizontal Kerning in Latin lookup 0 subtable" tie dx=0 dy=0 dh=0 dv=0 dx=0 dy=0 dh=0 dv=0
EndChar

StartChar: C
Encoding: 67 67 5
Width: 681
GlyphClass: 2
Flags: W
LayerCount: 2
Fore
SplineSet
353 90 m 0,0,1
 356 87 356 87 356 83 c 0,2,3
 356 82 356 82 354 78 c 1,4,-1
 351 75 l 1,5,-1
 344 73 l 2,6,7
 343 72 343 72 340 72 c 0,8,9
 338 72 338 72 337 73 c 0,10,11
 311 88 311 88 311 120 c 128,-1,12
 311 152 311 152 339 193 c 0,13,14
 368 235 368 235 415 267 c 0,15,16
 460 298 460 298 495 298 c 0,17,18
 575 298 575 298 590 239 c 0,19,20
 593 228 593 228 593 216 c 0,21,22
 593 166 593 166 549 102 c 0,23,24
 514 52 514 52 447 16 c 0,25,26
 381 -20 381 -20 325 -19 c 0,27,28
 260 -19 260 -19 221.5 11.5 c 128,-1,29
 183 42 183 42 178 96 c 0,30,31
 177 103 177 103 177 119 c 0,32,33
 177 224 177 224 272 358 c 1,34,-1
 251 358 l 2,35,36
 111 358 111 358 53 422 c 0,37,38
 26 452 26 452 27 492 c 0,39,40
 27 534 27 534 58 579 c 0,41,42
 91 626 91 626 164 659 c 0,43,44
 236 692 236 692 305 692 c 0,45,46
 313 692 313 692 313 684 c 0,47,48
 313 683 313 683 308 673 c 1,49,50
 305 670 305 670 301 670 c 0,51,52
 247 670 247 670 193 641 c 1,53,54
 144 613 144 613 112 568 c 0,55,56
 79 520 79 520 79 480 c 0,57,58
 79 452 79 452 92 436 c 0,59,60
 133 381 133 381 255 381 c 0,61,62
 278 381 278 381 289 382 c 1,63,64
 391 521 391 521 523 623 c 0,65,66
 664 732 664 732 758 731 c 0,67,68
 821 731 821 731 830 680 c 0,69,70
 831 676 831 676 831 667 c 0,71,72
 831 623 831 623 793 569 c 1,73,74
 732 481 732 481 572 420 c 0,75,76
 475 382 475 382 373 367 c 1,77,78
 248 193 248 193 241 99 c 1,79,-1
 241 88 l 2,80,81
 241 49 241 49 263 26 c 128,-1,82
 285 3 285 3 329 3 c 0,83,84
 371 3 371 3 418 34 c 0,85,86
 459 61 459 61 496 113 c 0,87,88
 547 185 547 185 547 228 c 2,89,-1
 547 232 l 1,90,91
 545 275 545 275 490 275 c 0,92,93
 464 275 464 275 428.5 249.5 c 128,-1,94
 393 224 393 224 365 183 c 0,95,96
 340 148 340 148 340 121 c 0,97,98
 340 101 340 101 353 90 c 0,0,1
354 78 m 1,99,-1
 355 87 l 1,100,-1
 355 86 l 1,101,102
 356 85 356 85 356 83 c 0,103,104
 356 80 356 80 354 78 c 1,99,-1
754 709 m 0,105,106
 691 709 691 709 575 606 c 0,107,108
 489 529 489 529 390 392 c 1,109,110
 472 404 472 404 561 438 c 0,111,112
 709 495 709 495 768 579 c 0,113,114
 805 632 805 632 805 665 c 1,115,-1
 804 674 l 1,116,117
 799 709 799 709 754 709 c 0,105,106
EndSplineSet
EndChar

StartChar: D
Encoding: 68 68 6
Width: 792
GlyphClass: 2
Flags: W
LayerCount: 2
Fore
SplineSet
869 577 m 0,0,1
 869 576 869 576 864 565 c 1,2,3
 861 562 861 562 857 562 c 0,4,5
 840 562 840 562 816 549 c 1,6,7
 821 521 821 521 821 496 c 0,8,9
 821 380 821 380 741 232 c 0,10,11
 697 150 697 150 628.5 81.5 c 128,-1,12
 560 13 560 13 478 -16 c 0,13,14
 437 -31 437 -31 401 -32 c 0,15,16
 364 -32 364 -32 294 -1 c 1,17,18
 255 -17 255 -17 220 -17 c 2,19,-1
 187 -17 l 2,20,21
 64 -17 64 -17 65 10 c 0,22,23
 65 15 65 15 69 20 c 0,24,25
 91 49 91 49 189 49 c 2,26,-1
 198 49 l 2,27,28
 235 49 235 49 282 30 c 1,29,30
 312 52 312 52 352.5 98.5 c 128,-1,31
 393 145 393 145 421.5 183.5 c 128,-1,32
 450 222 450 222 497 289 c 0,33,34
 653 508 653 508 780 565 c 1,35,36
 740 702 740 702 559 702 c 0,37,38
 484 702 484 702 395.5 653 c 128,-1,39
 307 604 307 604 256 532 c 0,40,41
 187 435 187 435 187 370 c 0,42,43
 187 301 187 301 263 301 c 0,44,45
 306 301 306 301 362 341 c 128,-1,46
 418 381 418 381 456 435 c 0,47,48
 509 512 509 512 509 571 c 0,49,50
 509 577 509 577 515 580 c 0,51,52
 519 582 519 582 522 582 c 2,53,-1
 524 582 l 2,54,55
 530 582 530 582 532 574 c 0,56,57
 533 570 533 570 534 560 c 0,58,59
 534 501 534 501 480 425 c 0,60,61
 439 367 439 367 375 323 c 128,-1,62
 311 279 311 279 259 279 c 0,63,64
 200 279 200 279 169.5 306.5 c 128,-1,65
 139 334 139 334 139 381 c 0,66,67
 139 455 139 455 203 543 c 1,68,69
 259 624 259 624 364 674.5 c 128,-1,70
 469 725 469 725 563 725 c 0,71,72
 763 725 763 725 810 577 c 1,73,74
 838 585 838 585 861 585 c 0,75,76
 869 585 869 585 869 577 c 0,0,1
715 241 m 0,77,78
 790 384 790 384 790 495 c 0,79,80
 790 506 790 506 787 528 c 1,81,82
 722 475 722 475 585 279 c 1,83,84
 442 77 442 77 321 11 c 1,85,86
 367 -9 367 -9 404 -9 c 0,87,88
 438 -9 438 -9 477 5 c 0,89,90
 552 34 552 34 613.5 98.5 c 128,-1,91
 675 163 675 163 715 241 c 0,77,78
224 6 m 0,92,93
 238 6 238 6 257 14 c 1,94,95
 228 25 228 25 195 26 c 0,96,97
 134 26 134 26 123 11 c 1,98,-1
 125 11 l 1,99,100
 151 6 151 6 224 6 c 0,92,93
EndSplineSet
EndChar

StartChar: E
Encoding: 69 69 7
Width: 575
GlyphClass: 2
Flags: W
LayerCount: 2
Fore
SplineSet
641 626 m 2,0,1
 639 623 639 623 634 623 c 0,2,3
 616 623 616 623 594 607 c 1,4,5
 574 595 574 595 555 568 c 0,6,7
 530 532 530 532 530 510 c 0,8,9
 530 477 530 477 577 477 c 0,10,11
 599 477 599 477 623 496 c 0,12,13
 651 515 651 515 669 543 c 1,14,15
 698 582 698 582 697 616 c 0,16,17
 697 636 697 636 688 650 c 0,18,19
 662 692 662 692 570 692 c 0,20,21
 526 692 526 692 477 658 c 1,22,23
 436 628 436 628 394 568 c 0,24,25
 337 486 337 486 337 440 c 0,26,27
 337 433 337 433 338 429 c 0,28,29
 340 421 340 421 342 416 c 1,30,31
 373 421 373 421 394 421 c 0,32,33
 432 421 432 421 456 410 c 0,34,35
 474 401 474 401 474 389 c 0,36,37
 474 381 474 381 469 375 c 0,38,39
 462 364 462 364 447 359 c 0,40,41
 432 354 432 354 417 354 c 0,42,43
 352 354 352 354 314 383 c 1,44,45
 286 372 286 372 266 360 c 0,46,47
 209 325 209 325 170 267 c 1,48,49
 107 176 107 176 106 115 c 0,50,51
 106 99 106 99 111 86 c 0,52,53
 135 14 135 14 249 14 c 0,54,55
 303 14 303 14 360 48 c 0,56,57
 413 80 413 80 451 134 c 1,58,59
 479 171 479 171 478 203 c 0,60,61
 478 215 478 215 473 225 c 0,62,63
 454 261 454 261 379 261 c 0,64,65
 339 261 339 261 299 213 c 128,-1,66
 259 165 259 165 251 110 c 0,67,68
 251 105 251 105 246 102 c 2,69,-1
 239 99 l 1,70,-1
 234 99 l 2,71,72
 230 99 230 99 228 104 c 0,73,74
 227 105 227 105 227 109 c 0,75,76
 235 171 235 171 284 227.5 c 128,-1,77
 333 284 333 284 383 284 c 0,78,79
 478 284 478 284 514 238 c 0,80,81
 529 220 529 220 529 191 c 0,82,83
 529 158 529 158 505 124 c 0,84,85
 464 68 464 68 390 31 c 0,86,87
 313 -8 313 -8 245 -8 c 0,88,89
 103 -8 103 -8 59 76 c 0,90,91
 46 103 46 103 46 136 c 0,92,93
 46 205 46 205 98 278 c 0,94,95
 141 337 141 337 227 379 c 0,96,97
 266 397 266 397 295 404 c 1,98,99
 290 411 290 411 286 421 c 0,100,101
 279 438 279 438 279 461 c 0,102,103
 279 516 279 516 323 579 c 1,104,105
 369 641 369 641 441 682 c 0,106,107
 518 725 518 725 582 725 c 0,108,109
 683 725 683 725 716 669 c 0,110,111
 728 650 728 650 728 624 c 0,112,113
 728 582 728 582 694 532 c 1,114,115
 668 497 668 497 637 478 c 1,116,117
 602 454 602 454 572 455 c 0,118,119
 519 455 519 455 507 493 c 0,120,121
 504 502 504 502 504 511 c 0,122,123
 504 541 504 541 530 579 c 0,124,125
 548 606 548 606 581 626 c 1,126,127
 615 645 615 645 638 645 c 0,128,129
 647 645 647 645 647 637 c 0,130,131
 647 634 647 634 645 632 c 2,132,-1
 641 626 l 2,0,1
390 397 m 0,133,134
 374 397 374 397 358 394 c 1,135,136
 378 377 378 377 420 377 c 0,137,138
 431 377 431 377 436 379 c 1,139,-1
 444 385 l 2,140,141
 445 386 445 386 445 387 c 0,142,143
 445 389 445 389 439 391 c 0,144,145
 425 397 425 397 390 397 c 0,133,134
EndSplineSet
EndChar

StartChar: F
Encoding: 70 70 8
Width: 916
GlyphClass: 2
Flags: W
LayerCount: 2
Fore
SplineSet
836 416 m 0,0,1
 863 416 863 416 868 395 c 0,2,3
 869 392 869 392 869 387 c 0,4,5
 869 372 869 372 856 353 c 0,6,7
 833 320 833 320 751 297 c 1,8,9
 739 278 739 278 738 259 c 0,10,11
 738 252 738 252 739 249 c 1,12,-1
 739 247 l 2,13,14
 739 242 739 242 734 239 c 2,15,-1
 678 216 l 2,16,17
 677 215 677 215 675 215 c 0,18,19
 672 215 672 215 671 216 c 1,20,21
 669 216 669 216 667 220 c 0,22,23
 666 221 666 221 666 223 c 128,-1,24
 666 225 666 225 667 226 c 0,25,26
 675 254 675 254 693 285 c 1,27,28
 652 278 652 278 623 276 c 1,29,30
 608 241 608 241 585 210 c 0,31,32
 518 116 518 116 409.5 46.5 c 128,-1,33
 301 -23 301 -23 212 -23 c 0,34,35
 140 -23 140 -23 91 -2.5 c 128,-1,36
 42 18 42 18 42 60 c 0,37,38
 42 90 42 90 69 127 c 0,39,40
 89 157 89 157 127 157 c 0,41,42
 161 157 161 157 161 122 c 0,43,44
 161 108 161 108 142.5 95 c 128,-1,45
 124 82 124 82 103 82 c 0,46,47
 84 82 84 82 73 97 c 1,48,49
 65 81 65 81 65 66 c 0,50,51
 65 0 65 0 216 0 c 0,52,53
 279 0 279 0 355.5 64 c 128,-1,54
 432 128 432 128 498 220 c 0,55,56
 502 226 502 226 532 273 c 1,57,58
 470 268 470 268 418 252 c 0,59,60
 342 228 342 228 319 196 c 0,61,62
 317 193 317 193 312 193 c 2,63,-1
 301 193 l 2,64,65
 298 193 298 193 296 194 c 0,66,67
 293 197 293 197 293 201 c 0,68,69
 293 204 293 204 294 206 c 0,70,71
 322 243 322 243 408 270 c 0,72,73
 474 292 474 292 547 297 c 1,74,75
 555 311 555 311 577 350 c 128,-1,76
 599 389 599 389 616.5 416.5 c 128,-1,77
 634 444 634 444 652 471 c 0,78,79
 712 557 712 557 816 621 c 0,80,81
 817 622 817 622 820 622 c 0,82,83
 827 622 827 622 828 615 c 2,84,-1
 830 605 l 2,85,86
 830 601 830 601 828 599 c 0,87,88
 759 536 759 536 706 461 c 0,89,90
 693 442 693 442 681 419 c 128,-1,91
 669 396 669 396 662.5 380.5 c 128,-1,92
 656 365 656 365 646.5 339 c 128,-1,93
 637 313 637 313 632 300 c 1,94,95
 669 301 669 301 709 309 c 1,96,-1
 721 328 l 1,97,98
 749 366 749 366 779 389 c 1,99,100
 812 416 812 416 836 416 c 0,0,1
1010 665 m 1,101,102
 1014 663 1014 663 1014 658 c 0,103,104
 1014 655 1014 655 1012 653 c 2,105,-1
 983 613 l 2,106,107
 981 609 981 609 977 609 c 0,108,109
 908 609 908 609 808.5 648.5 c 128,-1,110
 709 688 709 688 643 688 c 0,111,112
 551 688 551 688 470 647 c 0,113,114
 380 602 380 602 331 532 c 0,115,116
 291 475 291 475 291 435 c 0,117,118
 291 426 291 426 292 422 c 0,119,120
 300 381 300 381 357 381 c 0,121,122
 409 381 409 381 464 407 c 1,123,124
 510 431 510 431 539 471 c 0,125,126
 578 525 578 525 578 570 c 0,127,128
 578 589 578 589 570 603 c 0,129,130
 569 604 569 604 569 607 c 0,131,132
 569 611 569 611 573 614 c 2,133,-1
 580 618 l 2,134,135
 584 620 584 620 585 621 c 2,136,-1
 589 620 l 1,137,138
 629 602 629 602 629 556 c 0,139,140
 629 514 629 514 592 461 c 0,141,142
 562 419 562 419 492 388 c 0,143,144
 422 358 422 358 353 358 c 0,145,146
 280 358 280 358 266 415 c 0,147,148
 264 422 264 422 264 436 c 0,149,150
 264 482 264 482 305 543 c 1,151,152
 363 626 363 626 472 686 c 0,153,154
 578 745 578 745 672 745 c 0,155,156
 740 745 740 745 840 706 c 128,-1,157
 940 667 940 667 1005 667 c 0,158,159
 1009 667 1009 667 1010 665 c 1,101,102
831 364 m 0,160,161
 842 379 842 379 843 386 c 1,162,163
 840 393 840 393 831.5 393 c 128,-1,164
 823 393 823 393 803 373 c 0,165,166
 795 365 795 365 765 324 c 1,167,168
 814 340 814 340 831 364 c 0,160,161
EndSplineSet
EndChar

StartChar: G
Encoding: 71 71 9
Width: 624
GlyphClass: 2
Flags: W
LayerCount: 2
Fore
SplineSet
305 673 m 1,0,1
 302 670 302 670 298 670 c 0,2,3
 258 670 258 670 204 631 c 0,4,5
 157 596 157 596 112 532 c 1,6,7
 61 457 61 457 60 404 c 0,8,9
 60 387 60 387 67 373 c 0,10,11
 94 310 94 310 202 309 c 0,12,13
 224 309 224 309 254 314 c 1,14,15
 260 369 260 369 306 435 c 0,16,17
 393 559 393 559 499 645 c 1,18,19
 607 734 607 734 672 734 c 0,20,21
 733 734 733 734 750 695 c 0,22,23
 755 682 755 682 755 670 c 0,24,25
 755 638 755 638 730 604 c 0,26,27
 638 474 638 474 481 380 c 0,28,29
 403 333 403 333 326 308 c 1,30,31
 320 288 320 288 318 279 c 1,32,-1
 318 273 l 2,33,34
 318 226 318 226 370 226 c 0,35,36
 399 226 399 226 432 245.5 c 128,-1,37
 465 265 465 265 484.5 283.5 c 128,-1,38
 504 302 504 302 543 341 c 1,39,40
 596 407 596 407 656 441 c 0,41,42
 657 442 657 442 660 442 c 0,43,44
 667 442 667 442 669 436 c 1,45,-1
 670 434 l 1,46,-1
 671 426 l 2,47,48
 671 420 671 420 668 419 c 0,49,50
 642 404 642 404 624.5 381 c 128,-1,51
 607 358 607 358 591 327 c 128,-1,52
 575 296 575 296 565 282 c 0,53,54
 540 247 540 247 525.5 182.5 c 128,-1,55
 511 118 511 118 485 81 c 0,56,57
 449 30 449 30 382 3.5 c 128,-1,58
 315 -23 315 -23 249 -23 c 0,59,60
 173 -23 173 -23 121.5 -3 c 128,-1,61
 70 17 70 17 70 60 c 0,62,63
 70 88 70 88 96 127 c 0,64,65
 116 157 116 157 155 157 c 0,66,67
 189 157 189 157 188 122 c 0,68,69
 188 108 188 108 170 95 c 128,-1,70
 152 82 152 82 131.5 82 c 128,-1,71
 111 82 111 82 101 97 c 1,72,73
 92 79 92 79 92 65 c 0,74,75
 92 0 92 0 252 0 c 0,76,77
 286 0 286 0 328.5 27 c 128,-1,78
 371 54 371 54 397 91 c 0,79,80
 420 123 420 123 446 180 c 128,-1,81
 472 237 472 237 483 256 c 1,82,83
 421 204 421 204 366 204 c 0,84,85
 274 204 274 204 256 274 c 0,86,87
 254 284 254 284 254 292 c 1,88,89
 221 287 221 287 198 287 c 0,90,91
 67 287 67 287 26 362 c 0,92,93
 12 388 12 388 11 419 c 0,94,95
 11 476 11 476 58 543 c 0,96,97
 103 605 103 605 173 648 c 0,98,99
 243 692 243 692 302 692 c 0,100,101
 310 692 310 692 310 684 c 0,102,103
 310 683 310 683 305 673 c 1,0,1
393 425 m 0,104,105
 354 369 354 369 339 340 c 1,106,107
 397 363 397 363 452 397 c 0,108,109
 583 482 583 482 677 614 c 0,110,111
 708 657 708 657 708 682 c 2,112,-1
 708 687 l 1,113,114
 705 711 705 711 668 711 c 128,-1,115
 631 711 631 711 552 630 c 0,116,117
 502 579 502 579 393 425 c 0,104,105
EndSplineSet
EndChar

StartChar: H
Encoding: 72 72 10
Width: 992
GlyphClass: 2
Flags: W
LayerCount: 2
Fore
SplineSet
942 143 m 0,0,1
 942 140 942 140 941 138 c 0,2,3
 898 78 898 78 845.5 35 c 128,-1,4
 793 -8 793 -8 748 -8 c 0,5,6
 689 -8 689 -8 659.5 19.5 c 128,-1,7
 630 47 630 47 630 96 c 0,8,9
 630 182 630 182 708 292 c 2,10,-1
 773 383 l 1,11,-1
 712 383 l 2,12,13
 665 383 665 383 641 382 c 1,14,-1
 517 210 l 2,15,16
 450 117 450 117 350.5 47 c 128,-1,17
 251 -23 251 -23 169 -23 c 0,18,19
 111 -23 111 -23 72.5 -2 c 128,-1,20
 34 19 34 19 34 58 c 0,21,22
 34 88 34 88 60 127 c 0,23,24
 80 157 80 157 119 157 c 0,25,26
 153 157 153 157 153 122 c 0,27,28
 153 108 153 108 134.5 95 c 128,-1,29
 116 82 116 82 95 82 c 0,30,31
 76 82 76 82 65 97 c 1,32,33
 56 78 56 78 55 62 c 0,34,35
 55 31 55 31 87.5 15.5 c 128,-1,36
 120 0 120 0 173 0 c 0,37,38
 275 0 275 0 429 220 c 0,39,40
 473 283 473 283 547 375 c 1,41,42
 366 353 366 353 290 246 c 0,43,44
 289 243 289 243 283 243 c 2,45,-1
 271 243 l 2,46,47
 263 243 263 243 263 251 c 1,48,-1
 264 256 l 1,49,50
 352 380 352 380 567 400 c 1,51,-1
 643 489 l 1,52,53
 591 465 591 465 544 466 c 0,54,55
 513 466 513 466 492 476.5 c 128,-1,56
 471 487 471 487 471 508 c 0,57,58
 471 523 471 523 484 543 c 0,59,60
 509 578 509 578 509 599 c 0,61,62
 509 623 509 623 483 623 c 0,63,64
 456 623 456 623 429.5 595 c 128,-1,65
 403 567 403 567 367 515 c 0,66,67
 363 511 363 511 359 511 c 2,68,-1
 348 511 l 2,69,70
 340 511 340 511 340 520 c 0,71,72
 340 523 340 523 341 524 c 0,73,74
 425 645 425 645 487 645 c 0,75,76
 521 645 521 645 540.5 630 c 128,-1,77
 560 615 560 615 560 590 c 0,78,79
 560 565 560 565 539 532 c 1,80,81
 527 516 527 516 526 505 c 0,82,83
 526 489 526 489 547 488 c 0,84,85
 591 488 591 488 641.5 514 c 128,-1,86
 692 540 692 540 720 579 c 1,87,-1
 877 731 l 2,88,89
 880 734 880 734 883 734 c 0,90,91
 889 734 889 734 891 728 c 2,92,-1
 894 720 l 1,93,94
 894 715 894 715 892 712 c 2,95,-1
 658 406 l 1,96,-1
 790 406 l 1,97,98
 899 552 899 552 998.5 638.5 c 128,-1,99
 1098 725 1098 725 1197 725 c 0,100,101
 1270 725 1270 725 1270 659 c 0,102,103
 1270 604 1270 604 1220 532 c 0,104,105
 1167 457 1167 457 1077.5 425 c 128,-1,106
 988 393 988 393 869 386 c 1,107,-1
 795 282 l 1,108,109
 694 138 694 138 693 67 c 0,110,111
 693 15 693 15 752 14 c 0,112,113
 788 14 788 14 831 52.5 c 128,-1,114
 874 91 874 91 915 148 c 0,115,116
 917 151 917 151 923 152 c 2,117,-1
 934 152 l 2,118,119
 942 151 942 151 942 143 c 0,0,1
1193 702 m 0,120,121
 1141 702 1141 702 1064 624 c 128,-1,122
 987 546 987 546 887 410 c 1,123,124
 1112 428 1112 428 1194 543 c 0,125,126
 1243 613 1243 613 1243 656 c 0,127,128
 1243 702 1243 702 1193 702 c 0,120,121
EndSplineSet
EndChar

StartChar: I
Encoding: 73 73 11
Width: 828
GlyphClass: 2
Flags: W
LayerCount: 2
Fore
SplineSet
665 485 m 0,0,1
 742 593 742 593 867 678 c 1,2,3
 855 674 855 674 828 666 c 0,4,5
 778 651 778 651 755 643 c 128,-1,6
 732 635 732 635 689.5 618.5 c 128,-1,7
 647 602 647 602 622.5 586.5 c 128,-1,8
 598 571 598 571 569.5 547.5 c 128,-1,9
 541 524 541 524 521 497 c 0,10,11
 460 411 460 411 460 349 c 0,12,13
 460 336 460 336 463 326 c 0,14,15
 474 284 474 284 523 267 c 1,16,17
 539 292 539 292 587 367.5 c 128,-1,18
 635 443 635 443 665 485 c 0,0,1
719 475 m 0,19,20
 689 433 689 433 656 358.5 c 128,-1,21
 623 284 623 284 611 263 c 1,22,23
 646 270 646 270 680 289 c 0,24,25
 731 319 731 319 763 364 c 0,26,27
 801 417 801 417 801 473 c 0,28,29
 801 481 801 481 799 498 c 0,30,31
 799 504 799 504 804 507 c 0,32,33
 805 507 805 507 807 508 c 0,34,35
 811 510 811 510 813 510 c 2,36,-1
 815 510 l 2,37,38
 821 510 821 510 823 503 c 1,39,40
 825 480 825 480 825 467 c 0,41,42
 825 406 825 406 788 353 c 0,43,44
 753 305 753 305 692 271 c 0,45,46
 646 245 646 245 598 239 c 1,47,-1
 580 210 l 2,48,49
 520 116 520 116 406.5 49.5 c 128,-1,50
 293 -17 293 -17 199 -17 c 0,51,52
 140 -17 140 -17 99.5 3.5 c 128,-1,53
 59 24 59 24 59 61 c 0,54,55
 59 89 59 89 85 127 c 0,56,57
 105 157 105 157 143 157 c 0,58,59
 177 157 177 157 177 122 c 0,60,61
 177 108 177 108 158.5 95 c 128,-1,62
 140 82 140 82 119.5 82 c 128,-1,63
 99 82 99 82 90 97 c 1,64,65
 82 82 82 82 82 66 c 0,66,67
 82 7 82 7 203 6 c 0,68,69
 268 6 268 6 348.5 69 c 128,-1,70
 429 132 429 132 492 220 c 2,71,-1
 509 245 l 1,72,73
 441 264 441 264 421 317 c 0,74,75
 413 339 413 339 413 362 c 0,76,77
 413 429 413 429 467 507 c 0,78,79
 506 562 506 562 567.5 598.5 c 128,-1,80
 629 635 629 635 684.5 650.5 c 128,-1,81
 740 666 740 666 823.5 688.5 c 128,-1,82
 907 711 907 711 962 733 c 0,83,84
 963 734 963 734 965 734 c 0,85,86
 971 734 971 734 973 728 c 0,87,88
 973 726 973 726 974 725 c 2,89,-1
 975 717 l 2,90,91
 975 711 975 711 972 710 c 0,92,93
 813 610 813 610 719 475 c 0,19,20
EndSplineSet
EndChar

StartChar: J
Encoding: 74 74 12
Width: 1077
GlyphClass: 2
Flags: W
LayerCount: 2
Fore
SplineSet
856 485 m 0,0,1
 933 593 933 593 1059 678 c 1,2,3
 1047 674 1047 674 1020 666 c 0,4,5
 970 651 970 651 947 643 c 128,-1,6
 924 635 924 635 881.5 618.5 c 128,-1,7
 839 602 839 602 814.5 586.5 c 128,-1,8
 790 571 790 571 761 547.5 c 128,-1,9
 732 524 732 524 713 497 c 0,10,11
 652 411 652 411 651 349 c 0,12,13
 651 336 651 336 654 326 c 0,14,15
 664 285 664 285 714 267 c 1,16,17
 727 289 727 289 756.5 335.5 c 128,-1,18
 786 382 786 382 809.5 417 c 128,-1,19
 833 452 833 452 856 485 c 0,0,1
910 475 m 0,20,21
 887 443 887 443 868.5 409 c 128,-1,22
 850 375 850 375 829 328.5 c 128,-1,23
 808 282 808 282 798 262 c 1,24,25
 833 267 833 267 871 289 c 0,26,27
 922 319 922 319 954 364 c 0,28,29
 992 417 992 417 992 473 c 0,30,31
 992 481 992 481 990 498 c 0,32,33
 990 504 990 504 995 507 c 0,34,35
 996 507 996 507 998 508 c 0,36,37
 1002 510 1002 510 1005 510 c 2,38,-1
 1007 510 l 2,39,40
 1013 510 1013 510 1015 503 c 1,41,42
 1017 480 1017 480 1017 467 c 0,43,44
 1017 406 1017 406 980 353 c 0,45,46
 945 305 945 305 884 271 c 0,47,48
 834 242 834 242 784 238 c 1,49,50
 762 199 762 199 745 174 c 0,51,52
 698 106 698 106 649 48 c 1,53,54
 807 92 807 92 848 148 c 0,55,56
 850 151 850 151 855 152 c 2,57,-1
 857 152 l 2,58,59
 866 152 866 152 866 143 c 0,60,61
 866 142 866 142 864 138 c 0,62,63
 816 69 816 69 625 18 c 1,64,65
 535 -85 535 -85 442 -165 c 0,66,67
 277 -307 277 -307 185 -307 c 0,68,69
 116 -307 116 -307 102 -255 c 1,70,71
 100 -243 100 -243 100 -236 c 0,72,73
 100 -190 100 -190 138 -137 c 0,74,75
 158 -108 158 -108 197.5 -84.5 c 128,-1,76
 237 -61 237 -61 295.5 -42.5 c 128,-1,77
 354 -24 354 -24 393 -14 c 128,-1,78
 432 -4 432 -4 500 11 c 0,79,80
 525 17 525 17 538 19 c 1,81,-1
 657 184 l 2,82,83
 686 225 686 225 699 246 c 1,84,85
 632 263 632 263 612 317 c 0,86,87
 604 339 604 339 604 362 c 0,88,89
 604 429 604 429 658 507 c 0,90,91
 697 562 697 562 758.5 598.5 c 128,-1,92
 820 635 820 635 876.5 650.5 c 128,-1,93
 933 666 933 666 1016 688.5 c 128,-1,94
 1099 711 1099 711 1153 733 c 0,95,96
 1154 734 1154 734 1156 734 c 0,97,98
 1163 734 1163 734 1164 728 c 0,99,100
 1164 726 1164 726 1165 725 c 2,101,-1
 1166 717 l 2,102,103
 1166 711 1166 711 1163 710 c 0,104,105
 1004 610 1004 610 910 475 c 0,20,21
995 507 m 2,106,-1
 992 505 l 2,107,108
 993 506 993 506 995 507 c 2,106,-1
188 -285 m 0,109,110
 228 -285 228 -285 276.5 -249.5 c 128,-1,111
 325 -214 325 -214 389 -150 c 0,112,113
 451 -88 451 -88 516 -7 c 1,114,-1
 503 -10 l 2,115,116
 435 -25 435 -25 395 -35.5 c 128,-1,117
 355 -46 355 -46 299.5 -64 c 128,-1,118
 244 -82 244 -82 208 -102.5 c 128,-1,119
 172 -123 172 -123 155 -147 c 0,120,121
 121 -194 121 -194 121 -231 c 0,122,123
 121 -238 121 -238 123 -247 c 0,124,125
 133 -285 133 -285 188 -285 c 0,109,110
EndSplineSet
EndChar

StartChar: K
Encoding: 75 75 13
Width: 935
GlyphClass: 2
Flags: W
LayerCount: 2
Fore
SplineSet
765 46 m 0,0,1
 819 91 819 91 858 148 c 0,2,3
 861 151 861 151 865 152 c 2,4,-1
 877 152 l 2,5,6
 886 152 886 152 886 143 c 0,7,8
 886 142 886 142 884 138 c 0,9,10
 841 77 841 77 780 30 c 1,11,12
 718 -17 718 -17 684 -17 c 0,13,14
 638 -17 638 -17 610.5 6 c 128,-1,15
 583 29 583 29 577 67 c 0,16,17
 575 76 575 76 574 95 c 0,18,19
 574 173 574 173 634 256 c 0,20,21
 663 297 663 297 674 316 c 1,22,23
 650 311 650 311 633 311 c 0,24,25
 613 311 613 311 603 319 c 0,26,27
 601 320 601 320 599 325 c 1,28,-1
 517 210 l 2,29,30
 450 117 450 117 350.5 47 c 128,-1,31
 251 -23 251 -23 169 -23 c 0,32,33
 111 -23 111 -23 72.5 -2 c 128,-1,34
 34 19 34 19 34 58 c 0,35,36
 34 88 34 88 60 127 c 0,37,38
 80 157 80 157 119 157 c 0,39,40
 153 157 153 157 153 122 c 0,41,42
 153 108 153 108 134.5 95 c 128,-1,43
 116 82 116 82 95 82 c 0,44,45
 76 82 76 82 65 97 c 1,46,47
 56 78 56 78 55 62 c 0,48,49
 55 31 55 31 87.5 15.5 c 128,-1,50
 120 0 120 0 173 0 c 0,51,52
 275 0 275 0 429 220 c 0,53,54
 525 356 525 356 645 492 c 1,55,56
 589 466 589 466 543 466 c 0,57,58
 505 466 505 466 486 488 c 0,59,60
 475 501 475 501 475 515.5 c 128,-1,61
 475 530 475 530 484 543 c 0,62,63
 513 584 513 584 513 601 c 2,64,-1
 513 603 l 1,65,66
 511 622 511 622 483 623 c 0,67,68
 468 623 468 623 432 591 c 1,69,70
 398 559 398 559 361 508 c 0,71,72
 357 504 357 504 354 504 c 2,73,-1
 343 504 l 2,74,75
 335 504 335 504 335 512 c 0,76,77
 335 516 335 516 336 517 c 0,78,79
 371 567 371 567 416 606 c 1,80,81
 459 645 459 645 487 645 c 0,82,83
 540 645 540 645 555 611 c 0,84,85
 559 603 559 603 559 590 c 0,86,87
 559 563 559 563 538 532 c 0,88,89
 527 515 527 515 526 505 c 0,90,91
 526 504 526 504 526 502 c 2,92,-1
 527 500 l 1,93,94
 529 489 529 489 547 488 c 0,95,96
 593 488 593 488 643 515 c 0,97,98
 694 543 694 543 720 579 c 1,99,-1
 877 731 l 2,100,101
 879 733 879 733 881 733 c 2,102,-1
 884 734 l 1,103,104
 889 734 889 734 891 728 c 2,105,-1
 894 717 l 2,106,107
 894 716 894 716 892 712 c 2,108,-1
 644 387 l 1,109,110
 667 399 667 399 683 399 c 0,111,112
 728 399 728 399 739 366 c 1,113,114
 774 384 774 384 807 410 c 0,115,116
 902 482 902 482 983 596 c 0,117,118
 1020 648 1020 648 1082 684 c 128,-1,119
 1144 720 1144 720 1196 720 c 0,120,121
 1209 720 1209 720 1222 717 c 0,122,123
 1227 715 1227 715 1228 711 c 0,124,125
 1228 710 1228 710 1228.5 708 c 128,-1,126
 1229 706 1229 706 1229 703 c 0,127,128
 1229 695 1229 695 1221 695 c 2,129,-1
 1215 695 l 2,130,131
 1170 695 1170 695 1116 663.5 c 128,-1,132
 1062 632 1062 632 1030 587 c 0,133,134
 950 474 950 474 835 392 c 1,135,136
 785 358 785 358 743 340 c 1,137,138
 742 300 742 300 705 246 c 1,139,140
 632 146 632 146 629 71 c 1,141,-1
 629 68 l 2,142,143
 629 7 629 7 688 6 c 0,144,145
 718 6 718 6 765 46 c 0,0,1
654 367 m 0,146,147
 640 357 640 357 626 336 c 1,148,149
 627 334 627 334 637 334 c 0,150,151
 662 334 662 334 688 344 c 1,152,153
 690 346 690 346 690 349 c 1,154,155
 692 354 692 354 692 364 c 0,156,157
 692 377 692 377 679 377 c 0,158,159
 667 377 667 377 654 367 c 0,146,147
EndSplineSet
EndChar

StartChar: L
Encoding: 76 76 14
Width: 894
GlyphClass: 2
Flags: W
LayerCount: 2
Fore
SplineSet
819 143 m 0,0,1
 819 142 819 142 817 138 c 0,2,3
 772 75 772 75 698 29 c 128,-1,4
 624 -17 624 -17 561 -17 c 0,5,6
 479 -17 479 -17 365 29 c 1,7,-1
 352 34 l 1,8,9
 248 -17 248 -17 164 -17 c 2,10,-1
 147 -17 l 2,11,12
 12 -17 12 -17 12 22 c 0,13,14
 12 32 12 32 24 48 c 0,15,16
 39 71 39 71 67 82 c 128,-1,17
 95 93 95 93 115.5 95 c 128,-1,18
 136 97 136 97 170 97 c 2,19,-1
 176 97 l 2,20,21
 247 97 247 97 336 77 c 1,22,23
 418 136 418 136 477 220 c 2,24,-1
 565 345 l 1,25,26
 555 344 555 344 532 344 c 0,27,28
 431 344 431 344 365.5 377 c 128,-1,29
 300 410 300 410 300 472 c 0,30,31
 300 520 300 520 341 579 c 0,32,33
 383 638 383 638 454 679.5 c 128,-1,34
 525 721 525 721 585 721 c 0,35,36
 603 721 603 721 616 717 c 1,37,-1
 618 715 l 1,38,39
 622 713 622 713 623 709 c 0,40,41
 623 706 623 706 621 703 c 2,42,-1
 616 697 l 2,43,44
 614 694 614 694 610 694 c 0,45,46
 558 694 558 694 495 657.5 c 128,-1,47
 432 621 432 621 395 568 c 0,48,49
 357 516 357 516 357 472 c 0,50,51
 357 422 357 422 406.5 394.5 c 128,-1,52
 456 367 456 367 537 367 c 0,53,54
 552 367 552 367 583 369 c 1,55,56
 639 447 639 447 686 505 c 128,-1,57
 733 563 733 563 786 619 c 128,-1,58
 839 675 839 675 885 704.5 c 128,-1,59
 931 734 931 734 967 734 c 0,60,61
 1012 734 1012 734 1035 713 c 128,-1,62
 1058 692 1058 692 1058 655 c 0,63,64
 1058 600 1058 600 1011 532 c 0,65,66
 911 389 911 389 667 353 c 1,67,-1
 564 210 l 2,68,69
 502 123 502 123 399 60 c 1,70,71
 512 32 512 32 585 33 c 0,72,73
 635 33 635 33 696.5 66.5 c 128,-1,74
 758 100 758 100 793 148 c 0,75,76
 795 151 795 151 799 152 c 2,77,-1
 811 152 l 2,78,79
 819 151 819 151 819 143 c 0,0,1
168 6 m 0,80,81
 227 6 227 6 301 52 c 1,82,83
 235 75 235 75 172 75 c 0,84,85
 102 75 102 75 77 38 c 0,86,87
 72 32 72 32 72 25 c 0,88,89
 72 6 72 6 168 6 c 0,80,81
963 711 m 0,90,91
 924 711 924 711 687 382 c 1,92,93
 885 420 885 420 972 543 c 0,94,95
 1020 612 1020 612 1020 658 c 0,96,97
 1020 711 1020 711 963 711 c 0,90,91
EndSplineSet
EndChar

StartChar: M
Encoding: 77 77 15
Width: 1105
GlyphClass: 2
Flags: W
LayerCount: 2
Fore
SplineSet
127 14 m 2,0,-1
 136 14 l 1,1,2
 179 16 179 16 224.5 47.5 c 128,-1,3
 270 79 270 79 300 112 c 128,-1,4
 330 145 330 145 388.5 218 c 128,-1,5
 447 291 447 291 480 329 c 0,6,7
 555 413 555 413 730 544.5 c 128,-1,8
 905 676 905 676 967 733 c 0,9,10
 969 736 969 736 972 736 c 2,11,-1
 976 735 l 2,12,13
 977 734 977 734 980.5 732.5 c 128,-1,14
 984 731 984 731 985 730 c 0,15,16
 989 726 989 726 989 723 c 0,17,18
 989 722 989 722 987 718 c 2,19,-1
 867 568 l 1,20,-1
 586 174 l 2,21,22
 533 100 533 100 509 43 c 0,23,24
 497 14 497 14 497 5 c 0,25,26
 497 0 497 0 500 0 c 0,27,28
 515 0 515 0 793 328 c 0,29,30
 862 409 862 409 1019 547 c 0,31,32
 1023 551 1023 551 1032.5 561.5 c 128,-1,33
 1042 572 1042 572 1049 579 c 2,34,-1
 1222 733 l 2,35,36
 1224 735 1224 735 1228 735 c 1,37,-1
 1239 732 l 1,38,-1
 1242 730 l 2,39,40
 1244 728 1244 728 1244 724 c 128,-1,41
 1244 720 1244 720 1243 719 c 2,42,-1
 1122 568 l 1,43,44
 1076 502 1076 502 1001 372 c 128,-1,45
 926 242 926 242 878 175 c 1,46,47
 823 96 823 96 809 40 c 0,48,49
 805 27 805 27 805 14 c 0,50,51
 805 -6 805 -6 822 -6 c 0,52,53
 858 -6 858 -6 914 36 c 0,54,55
 971 79 971 79 1015 139 c 1,56,57
 1016 143 1016 143 1022 143 c 2,58,-1
 1033 143 l 2,59,60
 1036 143 1036 143 1037 141 c 1,61,62
 1041 140 1041 140 1041 135 c 0,63,64
 1041 132 1041 132 1039 130 c 0,65,66
 995 67 995 67 929 19 c 1,67,68
 863 -29 863 -29 818 -29 c 0,69,70
 785 -29 785 -29 767 -10.5 c 128,-1,71
 749 8 749 8 745 38 c 0,72,73
 744 43 744 43 744 54 c 0,74,75
 744 120 744 120 791 184 c 0,76,77
 823 228 823 228 855 278.5 c 128,-1,78
 887 329 887 329 924.5 389.5 c 128,-1,79
 962 450 962 450 984 483 c 1,80,81
 876 387 876 387 817 317 c 0,82,83
 811 311 811 311 792 287 c 1,84,85
 518 -37 518 -37 486 -37 c 0,86,87
 440 -37 440 -37 440 22 c 2,88,-1
 440 36 l 1,89,90
 447 112 447 112 498 184 c 1,91,92
 545 250 545 250 640 372 c 128,-1,93
 735 494 735 494 773 546 c 1,94,95
 707 497 707 497 673 470.5 c 128,-1,96
 639 444 639 444 589.5 400 c 128,-1,97
 540 356 540 356 505 316 c 0,98,99
 482 290 482 290 436 234.5 c 128,-1,100
 390 179 390 179 359.5 145 c 128,-1,101
 329 111 329 111 287 71 c 128,-1,102
 245 31 245 31 203 11.5 c 128,-1,103
 161 -8 161 -8 120 -8 c 0,104,105
 82 -8 82 -8 56 7.5 c 128,-1,106
 30 23 30 23 30 50 c 0,107,108
 30 73 30 73 48 98 c 1,109,110
 55 105 55 105 57 105 c 1,111,112
 73 127 73 127 105 127 c 0,113,114
 141 127 141 127 141 90 c 0,115,116
 141 75 141 75 121 61.5 c 128,-1,117
 101 48 101 48 82 48 c 0,118,119
 74 48 74 48 68 51 c 1,120,-1
 68 47 l 2,121,122
 68 37 68 37 71 32 c 1,123,124
 88 14 88 14 127 14 c 2,0,-1
EndSplineSet
EndChar

StartChar: N
Encoding: 78 78 16
Width: 923
GlyphClass: 2
Flags: W
LayerCount: 2
Fore
SplineSet
808 717 m 2,0,-1
 819 717 l 2,1,2
 827 717 827 717 827 709 c 0,3,4
 827 706 827 706 826 705 c 0,5,6
 782 639 782 639 782 507 c 0,7,8
 782 468 782 468 786.5 416.5 c 128,-1,9
 791 365 791 365 791 358 c 2,10,-1
 791 342 l 2,11,12
 791 287 791 287 773 222 c 1,13,14
 848 345 848 345 936 471 c 0,15,16
 1003 565 1003 565 1071.5 633 c 128,-1,17
 1140 701 1140 701 1224 736 c 1,18,-1
 1228 736 l 2,19,20
 1235 736 1235 736 1235 729 c 2,21,-1
 1232 705 l 2,22,23
 1232 701 1232 701 1227 697 c 0,24,25
 1088 640 1088 640 961 461 c 0,26,27
 796 227 796 227 681 -4 c 0,28,29
 678 -8 678 -8 673 -8 c 2,30,-1
 662 -8 l 2,31,32
 660 -8 660 -8 658 -7 c 0,33,34
 653 -5 653 -5 653 0 c 0,35,36
 653 3 653 3 654 4 c 0,37,38
 706 103 706 103 707 219 c 0,39,40
 707 247 707 247 703.5 296.5 c 128,-1,41
 700 346 700 346 699 358 c 1,42,-1
 703 472 l 1,43,-1
 705 479 l 2,44,45
 707 486 707 486 710.5 505.5 c 128,-1,46
 714 525 714 525 719 548 c 1,47,-1
 477 210 l 1,48,49
 406 114 406 114 323.5 45.5 c 128,-1,50
 241 -23 241 -23 169 -23 c 0,51,52
 111 -23 111 -23 72.5 -2 c 128,-1,53
 34 19 34 19 34 58 c 0,54,55
 34 88 34 88 60 127 c 0,56,57
 80 157 80 157 119 157 c 0,58,59
 153 157 153 157 153 122 c 0,60,61
 153 108 153 108 134 95 c 128,-1,62
 115 82 115 82 94.5 82 c 128,-1,63
 74 82 74 82 65 97 c 1,64,65
 56 78 56 78 55 62 c 0,66,67
 55 31 55 31 87.5 15.5 c 128,-1,68
 120 0 120 0 173 0 c 0,69,70
 236 0 236 0 311.5 64 c 128,-1,71
 387 128 387 128 453 220 c 2,72,-1
 801 714 l 2,73,74
 804 717 804 717 808 717 c 2,0,-1
EndSplineSet
EndChar

StartChar: O
Encoding: 79 79 17
Width: 755
GlyphClass: 2
Flags: W
LayerCount: 2
Fore
SplineSet
535 505 m 2,0,-1
 540 511 l 1,1,2
 544 513 544 513 546 513 c 0,3,4
 549 513 549 513 550 512 c 0,5,6
 554 510 554 510 568.5 503 c 128,-1,7
 583 496 583 496 589 493 c 128,-1,8
 595 490 595 490 607.5 485.5 c 128,-1,9
 620 481 620 481 630.5 479.5 c 128,-1,10
 641 478 641 478 652 477 c 1,11,12
 650 562 650 562 563 562 c 0,13,14
 524 562 524 562 456 503 c 0,15,16
 391 447 391 447 324 353 c 1,17,18
 250 248 250 248 233 124 c 1,19,20
 231 119 231 119 228 117 c 2,21,-1
 214 112 l 2,22,23
 213 111 213 111 210 111 c 0,24,25
 205 111 205 111 203 116 c 1,26,-1
 203 120 l 1,27,28
 219 250 219 250 299 364 c 0,29,30
 365 456 365 456 440 519 c 0,31,32
 520 585 520 585 567 585 c 0,33,34
 623 585 623 585 655.5 557.5 c 128,-1,35
 688 530 688 530 694 484 c 1,36,37
 703 486 703 486 718 496 c 0,38,39
 747 512 747 512 768 543 c 0,40,41
 795 582 795 582 795 613 c 0,42,43
 795 638 795 638 780 655 c 0,44,45
 741 702 741 702 634 702 c 0,46,47
 567 702 567 702 471 623 c 1,48,49
 392 560 392 560 298 425 c 0,50,51
 166 239 166 239 162 129 c 1,52,-1
 162 124 l 2,53,54
 162 74 162 74 191 44 c 128,-1,55
 220 14 220 14 278 14 c 0,56,57
 331 14 331 14 406 73 c 0,58,59
 475 126 475 126 540 220 c 1,60,61
 642 362 642 362 651 455 c 1,62,63
 600 456 600 456 537 492 c 0,64,65
 532 494 532 494 531 499 c 0,66,67
 532 502 532 502 535 505 c 2,0,-1
731 477 m 0,68,69
 709 465 709 465 695 462 c 1,70,-1
 695 459 l 2,71,72
 695 354 695 354 594 210 c 0,73,74
 531 120 531 120 437 56 c 1,75,76
 345 -9 345 -9 273 -8 c 0,77,78
 197 -8 197 -8 152.5 27.5 c 128,-1,79
 108 63 108 63 99 125 c 0,80,81
 97 143 97 143 97 154 c 0,82,83
 97 273 97 273 210 435 c 1,84,85
 295 555 295 555 420 640 c 0,86,87
 546 725 546 725 638 725 c 0,88,89
 758 725 758 725 802 670 c 1,90,91
 822 646 822 646 822 612 c 0,92,93
 822 572 822 572 794 532 c 1,94,95
 768 499 768 499 731 477 c 0,68,69
EndSplineSet
EndChar

StartChar: P
Encoding: 80 80 18
Width: 1037
GlyphClass: 2
Flags: W
LayerCount: 2
Fore
SplineSet
482 668 m 0,0,1
 611 735 611 735 727 734 c 0,2,3
 890 734 890 734 978 673 c 1,4,5
 1002 690 1002 690 1042 716 c 0,6,7
 1043 717 1043 717 1047 717 c 0,8,9
 1054 717 1054 717 1055 713 c 2,10,-1
 1058 700 l 2,11,12
 1058 697 1058 697 1054 693 c 1,13,14
 1035 680 1035 680 1006 650 c 1,15,16
 1012 644 1012 644 1020 634 c 0,17,18
 1056 590 1056 590 1056 534 c 0,19,20
 1056 465 1056 465 1001 389 c 0,21,22
 968 342 968 342 896 308 c 0,23,24
 824 275 824 275 755 275 c 0,25,26
 732 275 732 275 721 276 c 1,27,-1
 699 246 l 2,28,29
 620 134 620 134 483.5 55.5 c 128,-1,30
 347 -23 347 -23 232 -23 c 0,31,32
 173 -23 173 -23 134.5 -2 c 128,-1,33
 96 19 96 19 96 58 c 0,34,35
 96 88 96 88 123 127 c 0,36,37
 143 157 143 157 181 157 c 0,38,39
 215 157 215 157 215 122 c 0,40,41
 215 108 215 108 197 95 c 128,-1,42
 179 82 179 82 159 82 c 0,43,44
 144 82 144 82 133 91 c 1,45,46
 126 76 126 76 126 61 c 0,47,48
 126 31 126 31 156 15.5 c 128,-1,49
 186 0 186 0 237 0 c 0,50,51
 322 0 322 0 430 76.5 c 128,-1,52
 538 153 538 153 611 256 c 0,53,54
 617 264 617 264 628 279.5 c 128,-1,55
 639 295 639 295 641 298 c 1,56,57
 632 302 632 302 624 309 c 0,58,59
 600 328 600 328 600 355 c 0,60,61
 600 375 600 375 616 399 c 0,62,63
 632 422 632 422 656 438 c 1,64,65
 679 455 679 455 700 456 c 0,66,67
 703 456 703 456 706 455 c 0,68,69
 709 452 709 452 709 447.5 c 128,-1,70
 709 443 709 443 708 442 c 2,71,-1
 703 436 l 2,72,73
 700 433 700 433 696 433 c 0,74,75
 685 433 685 433 671 422 c 0,76,77
 656 410 656 410 641 389 c 0,78,79
 629 371 629 371 629 356 c 0,80,81
 629 338 629 338 644 326 c 0,82,83
 653 320 653 320 655 318 c 1,84,85
 816 542 816 542 946 648 c 1,86,87
 877 710 877 710 723 711 c 0,88,89
 612 711 612 711 494 649 c 0,90,91
 376 588 376 588 311 497 c 1,92,93
 257 418 257 418 257 365 c 0,94,95
 257 357 257 357 258 352 c 0,96,97
 265 298 265 298 334 298 c 0,98,99
 381 298 381 298 450 347 c 0,100,101
 513 393 513 393 567 471 c 1,102,103
 623 550 623 550 624 615 c 0,104,105
 624 627 624 627 623 633 c 1,106,107
 623 639 623 639 628 642 c 0,108,109
 629 642 629 642 631 643 c 0,110,111
 635 645 635 645 637 645 c 2,112,-1
 638 645 l 2,113,114
 646 645 646 645 646 638 c 0,115,116
 650 607 650 607 650 590 c 0,117,118
 650 521 650 521 607 461 c 0,119,120
 553 385 553 385 472 330 c 0,121,122
 391 276 391 276 330 275 c 0,123,124
 289 275 289 275 263 294 c 128,-1,125
 237 313 237 313 231 346 c 0,126,127
 230 352 230 352 230 365 c 0,128,129
 230 428 230 428 287 507 c 0,130,131
 354 602 354 602 482 668 c 0,0,1
759 298 m 0,132,133
 808 298 808 298 857 327 c 0,134,135
 897 351 897 351 931 399 c 0,136,137
 989 481 989 481 989 552 c 0,138,139
 989 588 989 588 974 614 c 1,140,141
 901 530 901 530 736 299 c 1,142,143
 744 298 744 298 759 298 c 0,132,133
EndSplineSet
EndChar

StartChar: Q
Encoding: 81 81 19
Width: 904
GlyphClass: 2
Flags: W
LayerCount: 2
Fore
SplineSet
214 143 m 0,0,1
 254 143 254 143 293 133.5 c 128,-1,2
 332 124 332 124 355 114 c 128,-1,3
 378 104 378 104 416 85 c 2,4,-1
 431 77 l 1,5,6
 448 87 448 87 483 110 c 0,7,8
 623 203 623 203 737 364 c 0,9,10
 835 503 835 503 836 591 c 0,11,12
 836 599 836 599 834 613 c 0,13,14
 826 659 826 659 788 685 c 128,-1,15
 750 711 750 711 685 711 c 0,16,17
 607 711 607 711 521 659 c 0,18,19
 440 612 440 612 385 532 c 1,20,21
 323 446 323 446 323 389 c 2,22,-1
 323 381 l 1,23,24
 328 324 328 324 399 324 c 0,25,26
 451 324 451 324 509 355 c 0,27,28
 560 384 560 384 595 435 c 1,29,30
 635 491 635 491 635 540 c 0,31,32
 635 580 635 580 609 603 c 1,33,-1
 607 606 l 1,34,-1
 607 608 l 2,35,36
 607 614 607 614 612 617 c 1,37,-1
 630 624 l 2,38,39
 633 624 633 624 635 622 c 0,40,41
 684 575 684 575 684 519 c 0,42,43
 684 474 684 474 649 425 c 0,44,45
 613 376 613 376 539 337 c 1,46,47
 464 301 464 301 395 301 c 0,48,49
 298 301 298 301 280 375 c 0,50,51
 277 389 277 389 276 403 c 0,52,53
 276 465 276 465 331 543 c 0,54,55
 389 624 389 624 492 678 c 0,56,57
 598 734 598 734 689 734 c 0,58,59
 768 734 768 734 822.5 705 c 128,-1,60
 877 676 877 676 896 621 c 0,61,62
 905 593 905 593 905 561 c 0,63,64
 905 466 905 466 825 353 c 0,65,66
 717 200 717 200 534 92 c 0,67,68
 503 74 503 74 472 58 c 1,69,70
 543 26 543 26 614 27 c 0,71,72
 663 27 663 27 722 61 c 0,73,74
 784 99 784 99 818 148 c 0,75,76
 821 151 821 151 825 152 c 2,77,-1
 837 152 l 2,78,79
 845 152 845 152 845 143 c 0,80,81
 845 140 845 140 844 138 c 0,82,83
 804 80 804 80 727 32 c 0,84,85
 649 -17 649 -17 596 -17 c 0,86,87
 512 -17 512 -17 404 28 c 1,88,89
 289 -17 289 -17 199 -17 c 0,90,91
 117 -17 117 -17 79 12 c 0,92,93
 55 30 55 30 55 54 c 0,94,95
 55 71 55 71 69 91 c 1,96,97
 85 113 85 113 127 128 c 0,98,99
 170 143 170 143 214 143 c 0,0,1
130 88 m 2,100,101
 111 86 111 86 108 81 c 0,102,103
 97 66 97 66 96.5 51.5 c 128,-1,104
 96 37 96 37 106 29 c 0,105,106
 133 6 133 6 203 6 c 0,107,108
 277 6 277 6 366 45 c 1,109,110
 265 86 265 86 186 86 c 1,111,-1
 141 89 l 1,112,-1
 130 88 l 2,100,101
EndSplineSet
EndChar

StartChar: R
Encoding: 82 82 20
Width: 870
GlyphClass: 2
Flags: W
LayerCount: 2
Fore
SplineSet
627 374 m 2,0,1
 653 374 653 374 673 364 c 1,2,3
 692 371 692 371 713 382 c 0,4,5
 772 413 772 413 814 471 c 0,6,7
 855 529 855 529 855 580 c 0,8,9
 855 620 855 620 830 647 c 1,10,11
 717 560 717 560 603 374 c 1,12,-1
 627 374 l 2,0,1
506 351 m 1,13,14
 506 355 506 355 511 364 c 0,15,16
 514 367 514 367 518 367 c 1,17,18
 664 562 664 562 810 666 c 1,19,20
 749 711 749 711 623 711 c 0,21,22
 511 711 511 711 394 649 c 0,23,24
 276 588 276 588 212 497 c 0,25,26
 156 416 156 416 156 362 c 1,27,-1
 157 350 l 1,28,29
 164 295 164 295 231 295 c 0,30,31
 261 295 261 295 299 325 c 0,32,33
 330 349 330 349 366 399 c 0,34,35
 373 409 373 409 405 447.5 c 128,-1,36
 437 486 437 486 456.5 516 c 128,-1,37
 476 546 476 546 476 565 c 2,38,-1
 476 571 l 2,39,40
 476 576 476 576 481 579 c 2,41,-1
 498 585 l 1,42,43
 505 585 505 585 507 578 c 1,44,-1
 508 566 l 1,45,46
 508 541 508 541 492 506.5 c 128,-1,47
 476 472 476 472 463 451.5 c 128,-1,48
 450 431 450 431 420 389 c 0,49,50
 385 340 385 340 330 307 c 1,51,52
 274 272 274 272 227 272 c 0,53,54
 186 272 186 272 160.5 291.5 c 128,-1,55
 135 311 135 311 130 345 c 0,56,57
 129 351 129 351 129 362 c 0,58,59
 129 427 129 427 186 507 c 0,60,61
 253 600 253 600 382 668 c 0,62,63
 511 735 511 735 627 734 c 0,64,65
 763 734 763 734 839 686 c 1,66,67
 848 692 848 692 865 702.5 c 128,-1,68
 882 713 882 713 887 716 c 0,69,70
 888 717 888 717 890 717 c 0,71,72
 897 717 897 717 899 711 c 2,73,-1
 901 699 l 2,74,75
 901 696 901 696 897 693 c 2,76,-1
 860 670 l 1,77,-1
 874 655 l 1,78,79
 908 618 908 618 908 570 c 0,80,81
 908 518 908 518 867 461 c 0,82,83
 826 405 826 405 741 362 c 0,84,85
 729 357 729 357 696 345 c 1,86,87
 702 337 702 337 707 323 c 0,88,89
 709 317 709 317 709 303 c 0,90,91
 709 259 709 259 674 210 c 2,92,-1
 597 102 l 1,93,94
 569 61 569 61 569 34 c 0,95,96
 569 32 569 32 569.5 30 c 128,-1,97
 570 28 570 28 570 27 c 0,98,99
 571 17 571 17 580 8 c 1,100,101
 590 6 590 6 611.5 6 c 128,-1,102
 633 6 633 6 659 22 c 1,103,104
 677 34 677 34 688 43 c 0,105,106
 741 86 741 86 784 148 c 0,107,108
 787 151 787 151 792 152 c 2,109,-1
 803 152 l 2,110,111
 807 152 807 152 808 151 c 0,112,113
 812 147 812 147 812 143 c 0,114,115
 812 142 812 142 810 138 c 0,116,117
 765 77 765 77 708 33 c 0,118,119
 689 18 689 18 669 6 c 1,120,121
 633 -18 633 -18 607 -17 c 0,122,123
 589 -17 589 -17 572 -8 c 1,124,125
 532 0 532 0 514 24 c 1,126,127
 494 47 494 47 494 70 c 0,128,129
 494 93 494 93 509 113 c 2,130,-1
 592 228 l 2,131,132
 639 293 639 293 644 318 c 0,133,134
 645 322 645 322 645 330 c 1,135,136
 610 323 610 323 575 323 c 1,137,-1
 500 210 l 1,138,139
 437 120 437 120 332 54.5 c 128,-1,140
 227 -11 227 -11 140 -11 c 0,141,142
 80 -11 80 -11 39 9 c 128,-1,143
 -2 29 -2 29 -2 66 c 0,144,145
 -2 93 -2 93 23 127 c 0,146,147
 43 157 43 157 82 157 c 0,148,149
 116 157 116 157 116 122 c 0,150,151
 116 108 116 108 98 95.5 c 128,-1,152
 80 83 80 83 59 83 c 0,153,154
 43 83 43 83 34 91 c 1,155,156
 29 78 29 78 29 69 c 0,157,158
 29 41 29 41 60.5 26 c 128,-1,159
 92 11 92 11 144 11 c 0,160,161
 204 11 204 11 277 72 c 128,-1,162
 350 133 350 133 413 220 c 2,163,-1
 506 351 l 1,13,14
623 350 m 1,164,-1
 589 350 l 1,165,166
 588 349 588 349 586 345 c 1,167,168
 611 347 611 347 626 350 c 1,169,-1
 623 350 l 1,164,-1
EndSplineSet
EndChar

StartChar: S
Encoding: 83 83 21
Width: 888
GlyphClass: 2
Flags: W
LayerCount: 2
Fore
SplineSet
691 681 m 0,0,1
 700 681 700 681 700 673 c 0,2,3
 700 670 700 670 698 668 c 2,4,-1
 694 662 l 2,5,6
 692 659 692 659 687 658 c 0,7,8
 595 658 595 658 504 621 c 1,9,10
 414 585 414 585 376 532 c 0,11,12
 350 496 350 496 350 464 c 0,13,14
 350 429 350 429 380 401 c 0,15,16
 443 345 443 345 588 345 c 1,17,18
 658 429 658 429 696 485 c 0,19,20
 767 585 767 585 847 655 c 128,-1,21
 927 725 927 725 998 725 c 0,22,23
 1042 725 1042 725 1042 677 c 0,24,25
 1042 668 1042 668 1041 663 c 0,26,27
 1035 608 1035 608 983 532 c 0,28,29
 924 447 924 447 804 385 c 0,30,31
 736 350 736 350 677 335 c 1,32,33
 627 272 627 272 583 210 c 0,34,35
 513 113 513 113 392 45 c 128,-1,36
 271 -23 271 -23 169 -23 c 0,37,38
 111 -23 111 -23 72 -2 c 128,-1,39
 33 19 33 19 33 58 c 0,40,41
 33 88 33 88 59 127 c 0,42,43
 79 157 79 157 119 157 c 0,44,45
 153 157 153 157 153 122 c 0,46,47
 153 108 153 108 134 95 c 128,-1,48
 115 82 115 82 94.5 82 c 128,-1,49
 74 82 74 82 65 97 c 1,50,51
 56 78 56 78 55 62 c 0,52,53
 55 32 55 32 87.5 16 c 128,-1,54
 120 0 120 0 173 0 c 0,55,56
 247 0 247 0 339 65.5 c 128,-1,57
 431 131 431 131 495 220 c 1,58,-1
 571 323 l 1,59,60
 421 325 421 325 351 386 c 0,61,62
 309 423 309 423 309 467 c 0,63,64
 309 504 309 504 337 543 c 0,65,66
 377 599 377 599 484 640 c 1,67,68
 588 681 588 681 691 681 c 0,0,1
994 702 m 0,69,70
 968 702 968 702 949 694 c 128,-1,71
 930 686 930 686 911 663.5 c 128,-1,72
 892 641 892 641 877.5 619.5 c 128,-1,73
 863 598 863 598 836 554 c 128,-1,74
 809 510 809 510 784 475 c 0,75,76
 757 438 757 438 700 365 c 1,77,78
 743 378 743 378 792 403 c 0,79,80
 901 459 901 459 957 543 c 1,81,82
 1006 611 1006 611 1016 662 c 0,83,84
 1017 667 1017 667 1017 676 c 0,85,86
 1017 702 1017 702 994 702 c 0,69,70
687 658 m 0,87,-1
EndSplineSet
EndChar

StartChar: T
Encoding: 84 84 22
Width: 764
GlyphClass: 2
Flags: W
LayerCount: 2
Fore
SplineSet
560 220 m 0,0,1
 590 263 590 263 637.5 346 c 128,-1,2
 685 429 685 429 715 471 c 0,3,4
 774 555 774 555 879 621 c 0,5,6
 880 622 880 622 883 622 c 0,7,8
 891 622 891 622 892 615 c 2,9,-1
 894 605 l 2,10,11
 894 600 894 600 891 599 c 1,12,13
 817 530 817 530 769 461 c 0,14,15
 738 418 738 418 708.5 336 c 128,-1,16
 679 254 679 254 648 210 c 0,17,18
 580 115 580 115 472 46 c 128,-1,19
 364 -23 364 -23 274 -23 c 0,20,21
 198 -23 198 -23 147 -3 c 128,-1,22
 96 17 96 17 96 60 c 0,23,24
 96 88 96 88 123 127 c 0,25,26
 143 157 143 157 181 157 c 0,27,28
 215 157 215 157 215 122 c 0,29,30
 215 108 215 108 196.5 95 c 128,-1,31
 178 82 178 82 157.5 82 c 128,-1,32
 137 82 137 82 127 97 c 1,33,34
 119 81 119 81 119 66 c 0,35,36
 119 0 119 0 279 0 c 0,37,38
 342 0 342 0 418.5 64 c 128,-1,39
 495 128 495 128 560 220 c 0,0,1
1019 658 m 0,40,41
 1019 654 1019 654 1018 653 c 2,42,-1
 989 613 l 2,43,44
 987 609 987 609 983 609 c 0,45,46
 914 609 914 609 814.5 648.5 c 128,-1,47
 715 688 715 688 649 688 c 0,48,49
 557 688 557 688 476 647 c 0,50,51
 386 602 386 602 337 532 c 0,52,53
 297 475 297 475 297 434 c 0,54,55
 297 426 297 426 298 422 c 0,56,57
 306 381 306 381 364 381 c 0,58,59
 416 381 416 381 470 407 c 1,60,61
 516 431 516 431 545 471 c 0,62,63
 584 525 584 525 584 570 c 0,64,65
 584 589 584 589 577 603 c 0,66,67
 576 604 576 604 575 606 c 0,68,69
 575 610 575 610 580 614 c 1,70,-1
 586 618 l 2,71,72
 590 620 590 620 591 621 c 2,73,-1
 595 620 l 1,74,75
 635 602 635 602 635 556 c 0,76,77
 635 514 635 514 598 461 c 0,78,79
 568 419 568 419 498 388 c 0,80,81
 428 358 428 358 359 358 c 0,82,83
 286 358 286 358 272 415 c 1,84,85
 270 427 270 427 270 435 c 0,86,87
 270 482 270 482 311 543 c 1,88,89
 369 626 369 626 478 686 c 0,90,91
 584 745 584 745 678 745 c 0,92,93
 746 745 746 745 846 706 c 128,-1,94
 946 667 946 667 1011 667 c 0,95,96
 1019 666 1019 666 1019 658 c 0,40,41
EndSplineSet
EndChar

StartChar: U
Encoding: 85 85 23
Width: 819
GlyphClass: 2
Flags: W
LayerCount: 2
Fore
SplineSet
295 184 m 1,0,-1
 489 435 l 2,1,2
 527 484 527 484 551 537 c 128,-1,3
 575 590 575 590 575 629 c 2,4,-1
 575 635 l 1,5,6
 573 671 573 671 549.5 691 c 128,-1,7
 526 711 526 711 482 711 c 0,8,9
 396 711 396 711 294 649 c 0,10,11
 193 588 193 588 128 497 c 0,12,13
 81 430 81 430 81 385 c 1,14,-1
 82 376 l 1,15,16
 89 331 89 331 144 331 c 0,17,18
 185 331 185 331 232 360 c 0,19,20
 276 389 276 389 307 435 c 1,21,22
 363 515 363 515 376 610 c 1,23,24
 378 615 378 615 381 617 c 2,25,-1
 390 621 l 1,26,27
 395 624 395 624 399 624 c 1,28,29
 406 622 406 622 407 615 c 2,30,-1
 407 614 l 2,31,32
 407 524 407 524 399 494 c 128,-1,33
 391 464 391 464 361 425 c 0,34,35
 325 377 325 377 262 342 c 0,36,37
 199 308 199 308 140 308 c 0,38,39
 105 308 105 308 83 324.5 c 128,-1,40
 61 341 61 341 56 370 c 0,41,42
 55 375 55 375 55 386 c 0,43,44
 55 438 55 438 102 507 c 1,45,46
 170 601 170 601 281.5 667.5 c 128,-1,47
 393 734 393 734 486 734 c 0,48,49
 543 734 543 734 580.5 709.5 c 128,-1,50
 618 685 618 685 629 641 c 0,51,52
 632 626 632 626 632 608 c 0,53,54
 632 525 632 525 560 425 c 2,55,-1
 383 174 l 2,56,57
 330 99 330 99 312 48 c 0,58,59
 304 26 304 26 304 15 c 0,60,61
 304 6 304 6 312 6 c 0,62,63
 353 6 353 6 412 47 c 0,64,65
 472 90 472 90 514 148 c 0,66,67
 684 389 684 389 893 629 c 0,68,69
 896 632 896 632 900 632 c 2,70,-1
 974 632 l 2,71,72
 978 632 978 632 979 630 c 1,73,74
 982 629 982 629 982 624 c 0,75,76
 982 621 982 621 980 618 c 0,77,78
 771 378 771 378 601 138 c 0,79,80
 560 80 560 80 544 37 c 0,81,82
 536 18 536 18 536 10 c 0,83,84
 536 6 536 6 540 6 c 0,85,86
 581 6 581 6 638 43 c 0,87,88
 697 82 697 82 733 134 c 0,89,90
 736 137 736 137 740 137 c 2,91,-1
 752 137 l 2,92,93
 761 137 761 137 761 129 c 0,94,95
 761 128 761 128 759 124 c 0,96,97
 719 68 719 68 652 26 c 1,98,99
 586 -17 586 -17 536 -17 c 0,100,101
 488 -17 488 -17 481 36 c 1,102,-1
 480 51 l 2,103,104
 480 58 480 58 482 75 c 1,105,106
 453 47 453 47 426 30 c 1,107,108
 357 -17 357 -17 308 -17 c 0,109,110
 253 -17 253 -17 249 47 c 1,111,-1
 249 52 l 2,112,113
 249 118 249 118 295 184 c 1,0,-1
EndSplineSet
EndChar

StartChar: V
Encoding: 86 86 24
Width: 636
GlyphClass: 2
Flags: W
LayerCount: 2
Fore
SplineSet
165 562 m 1,0,1
 120 531 120 531 84 482 c 0,2,3
 81 479 81 479 77 479 c 2,4,-1
 66 479 l 2,5,6
 57 479 57 479 56 487 c 0,7,8
 56 488 56 488 58 493 c 0,9,10
 95 545 95 545 152 580 c 1,11,12
 209 617 209 617 255 616 c 0,13,14
 287 616 287 616 307.5 604.5 c 128,-1,15
 328 593 328 593 328 573.5 c 128,-1,16
 328 554 328 554 305 531 c 0,17,18
 276 501 276 501 276 481 c 0,19,20
 276 467 276 467 292 467 c 0,21,22
 316 467 316 467 358 499 c 1,23,24
 392 526 392 526 420 559 c 1,25,26
 467 647 467 647 548 731 c 0,27,28
 551 734 551 734 554 734 c 2,29,-1
 565 734 l 2,30,31
 568 734 568 734 571 731 c 0,32,33
 573 729 573 729 573 725 c 128,-1,34
 573 721 573 721 571 720 c 0,35,36
 539 687 539 687 511 617.5 c 128,-1,37
 483 548 483 548 469 494.5 c 128,-1,38
 455 441 455 441 436 356 c 0,39,40
 413 256 413 256 347 152 c 1,41,-1
 355 160 l 1,42,43
 498 293 498 293 549 364 c 0,44,45
 564 386 564 386 598 436 c 128,-1,46
 632 486 632 486 653 515.5 c 128,-1,47
 674 545 674 545 707.5 586 c 128,-1,48
 741 627 741 627 778.5 658.5 c 128,-1,49
 816 690 816 690 860 716 c 0,50,51
 861 717 861 717 864 717 c 0,52,53
 870 717 870 717 872 711 c 2,54,-1
 878 690 l 2,55,56
 878 686 878 686 873 683 c 0,57,58
 839 663 839 663 807 636.5 c 128,-1,59
 775 610 775 610 753 588.5 c 128,-1,60
 731 567 731 567 702 530.5 c 128,-1,61
 673 494 673 494 659 475.5 c 128,-1,62
 645 457 645 457 614.5 412.5 c 128,-1,63
 584 368 584 368 573 353 c 0,64,65
 522 280 522 280 389.5 157 c 128,-1,66
 257 34 257 34 215 -14 c 0,67,68
 212 -17 212 -17 208 -17 c 2,69,-1
 197 -17 l 2,70,71
 194 -17 194 -17 191 -15 c 0,72,73
 188 -12 188 -12 188 -8 c 0,74,75
 188 -5 188 -5 190 -3 c 0,76,77
 235 43 235 43 268.5 113 c 128,-1,78
 302 183 302 183 315 230.5 c 128,-1,79
 328 278 328 278 346 360 c 0,80,81
 360 429 360 429 388 494 c 1,82,83
 378 486 378 486 373 482 c 0,84,85
 321 444 321 444 288 444 c 0,86,87
 259 444 259 444 242.5 456.5 c 128,-1,88
 226 469 226 469 226 489 c 0,89,90
 226 514 226 514 254 544 c 0,91,92
 272 562 272 562 272 578 c 0,93,94
 272 594 272 594 251 594 c 0,95,96
 215 594 215 594 165 562 c 1,0,1
EndSplineSet
EndChar

StartChar: W
Encoding: 87 87 25
Width: 824
GlyphClass: 2
Flags: W
LayerCount: 2
Fore
SplineSet
330 -4 m 0,0,1
 380 69 380 69 438.5 200 c 128,-1,2
 497 331 497 331 514 362 c 0,3,4
 543 414 543 414 658 583 c 1,5,-1
 458 353 l 1,6,7
 252 113 252 113 127 -14 c 0,8,9
 124 -17 124 -17 121 -17 c 2,10,-1
 110 -17 l 2,11,12
 105 -17 105 -17 103 -14 c 1,13,14
 100 -12 100 -12 100 -8 c 256,15,16
 100 -4 100 -4 103 -3 c 1,17,18
 170 67 170 67 287 361 c 0,19,20
 313 427 313 427 349 487 c 1,21,22
 296 465 296 465 252 466 c 0,23,24
 220 466 220 466 197 476.5 c 128,-1,25
 174 487 174 487 174 505.5 c 128,-1,26
 174 524 174 524 194 544 c 0,27,28
 224 575 224 575 223 598 c 0,29,30
 223 623 223 623 193 623 c 0,31,32
 175 623 175 623 153 605.5 c 128,-1,33
 131 588 131 588 115.5 569 c 128,-1,34
 100 550 100 550 75 515 c 1,35,36
 74 511 74 511 69 511 c 2,37,-1
 56 511 l 2,38,39
 48 511 48 511 48 520 c 0,40,41
 48 522 48 522 50 524 c 0,42,43
 134 645 134 645 197 645 c 0,44,45
 233 645 233 645 254.5 629.5 c 128,-1,46
 276 614 276 614 276 591 c 0,47,48
 276 562 276 562 246 531 c 0,49,50
 231 516 231 516 230 505 c 0,51,52
 230 489 230 489 256 488 c 0,53,54
 313 488 313 488 373 526 c 1,55,56
 444 637 444 637 537 731 c 0,57,58
 540 734 540 734 543 734 c 2,59,-1
 554 734 l 2,60,61
 557 734 557 734 560 731 c 0,62,63
 563 729 563 729 563 725 c 256,64,65
 563 721 563 721 560 720 c 1,66,67
 529 688 529 688 492 616.5 c 128,-1,68
 455 545 455 545 434 495 c 128,-1,69
 413 445 413 445 377 355 c 0,70,71
 351 293 351 293 312 225 c 1,72,73
 344 261 344 261 447 380.5 c 128,-1,74
 550 500 550 500 620.5 578 c 128,-1,75
 691 656 691 656 764 731 c 0,76,77
 767 734 767 734 770 734 c 2,78,-1
 781 734 l 2,79,80
 789 734 789 734 790 725 c 0,81,82
 790 722 790 722 788 721 c 0,83,84
 737 648 737 648 678.5 516 c 128,-1,85
 620 384 620 384 603 354 c 0,86,87
 574 299 574 299 420 79 c 1,88,89
 444 98 444 98 527 162.5 c 128,-1,90
 610 227 610 227 658 271 c 128,-1,91
 706 315 706 315 739 364 c 0,92,93
 779 421 779 421 816.5 481 c 128,-1,94
 854 541 854 541 871 569 c 128,-1,95
 888 597 888 597 912.5 627 c 128,-1,96
 937 657 937 657 967 676.5 c 128,-1,97
 997 696 997 696 1046 716 c 0,98,99
 1047 717 1047 717 1050 717 c 0,100,101
 1055 717 1055 717 1057 712 c 1,102,-1
 1055 685 l 1,103,104
 1053 680 1053 680 1050 678 c 0,105,106
 1008 661 1008 661 975.5 637.5 c 128,-1,107
 943 614 943 614 917 581.5 c 128,-1,108
 891 549 891 549 871.5 519 c 128,-1,109
 852 489 852 489 821.5 439.5 c 128,-1,110
 791 390 791 390 765 353 c 0,111,112
 723 294 723 294 649 231.5 c 128,-1,113
 575 169 575 169 488.5 102.5 c 128,-1,114
 402 36 402 36 353 -14 c 1,115,116
 352 -17 352 -17 347 -17 c 2,117,-1
 336 -17 l 2,118,119
 328 -17 328 -17 328 -8 c 0,120,121
 328 -6 328 -6 330 -4 c 0,0,1
EndSplineSet
EndChar

StartChar: X
Encoding: 88 88 26
Width: 966
GlyphClass: 2
Flags: W
LayerCount: 2
Fore
SplineSet
488 471 m 1,0,1
 547 555 547 555 548 626 c 2,2,-1
 548 632 l 2,3,4
 548 637 548 637 552 640 c 2,5,-1
 559 644 l 2,6,7
 560 645 560 645 563 645 c 0,8,9
 567 645 567 645 569 642 c 0,10,11
 588 618 588 618 589 584 c 0,12,13
 589 527 589 527 542 461 c 0,14,15
 513 421 513 421 459 388 c 1,16,17
 408 358 408 358 359 358 c 0,18,19
 323 358 323 358 302.5 376.5 c 128,-1,20
 282 395 282 395 280 427 c 1,21,-1
 280 435 l 2,22,23
 280 495 280 495 337 579 c 1,24,25
 383 642 383 642 459 688 c 1,26,27
 537 734 537 734 599 734 c 0,28,29
 672 734 672 734 716 701 c 128,-1,30
 760 668 760 668 769 608 c 1,31,32
 771 588 771 588 771 578 c 0,33,34
 771 527 771 527 750 468 c 1,35,36
 820 552 820 552 884 613 c 1,37,38
 921 650 921 650 944 670.5 c 128,-1,39
 967 691 967 691 1003 712.5 c 128,-1,40
 1039 734 1039 734 1067 734 c 0,41,42
 1159 734 1159 734 1159 703 c 0,43,44
 1159 691 1159 691 1148 676 c 0,45,46
 1128 646 1128 646 1090 646 c 0,47,48
 1056 646 1056 646 1056 681 c 0,49,50
 1056 698 1056 698 1079 711 c 1,51,-1
 1063 711 l 2,52,53
 1041 711 1041 711 1011 692.5 c 128,-1,54
 981 674 981 674 959 654.5 c 128,-1,55
 937 635 937 635 900 598 c 0,56,57
 800 500 800 500 703 367 c 1,58,-1
 779 367 l 2,59,60
 783 367 783 367 784 366 c 0,61,62
 788 362 788 362 788 358 c 0,63,64
 788 357 788 357 782 348 c 1,65,66
 781 344 781 344 775 344 c 2,67,-1
 686 344 l 1,68,-1
 668 317 l 1,69,70
 574 184 574 184 573 95 c 2,71,-1
 573 92 l 1,72,73
 575 6 575 6 666 6 c 0,74,75
 704 6 704 6 765 56 c 0,76,77
 823 103 823 103 882 184 c 0,78,79
 883 187 883 187 889 187 c 2,80,-1
 900 187 l 2,81,82
 908 187 908 187 908 179 c 0,83,84
 908 176 908 176 906 174 c 0,85,86
 849 94 849 94 780 40 c 0,87,88
 708 -17 708 -17 663 -17 c 0,89,90
 609 -17 609 -17 579.5 12 c 128,-1,91
 550 41 550 41 548 88 c 1,92,-1
 548 98 l 2,93,94
 548 143 548 143 568 196 c 1,95,96
 512 135 512 135 444 82 c 0,97,98
 317 -17 317 -17 237 -17 c 0,99,100
 180 -17 180 -17 142.5 3.5 c 128,-1,101
 105 24 105 24 105 60 c 0,102,103
 105 89 105 89 131 127 c 0,104,105
 151 157 151 157 189 157 c 0,106,107
 223 157 223 157 223 122 c 0,108,109
 223 108 223 108 205 95.5 c 128,-1,110
 187 83 187 83 167 83 c 0,111,112
 151 83 151 83 141 91 c 1,113,114
 135 76 135 76 135 63 c 0,115,116
 135 35 135 35 164 20.5 c 128,-1,117
 193 6 193 6 241 6 c 0,118,119
 294 6 294 6 392 98 c 0,120,121
 469 170 469 170 580 328 c 0,122,123
 586 335 586 335 591 344 c 1,124,-1
 520 344 l 2,125,126
 519 344 519 344 515 346 c 0,127,128
 512 348 512 348 512 352 c 128,-1,129
 512 356 512 356 513 357 c 2,130,-1
 517 364 l 2,131,132
 518 367 518 367 524 367 c 2,133,-1
 606 367 l 1,134,135
 704 514 704 514 706 604 c 1,136,-1
 706 609 l 2,137,138
 706 656 706 656 677.5 683.5 c 128,-1,139
 649 711 649 711 595 711 c 0,140,141
 540 711 540 711 472 671 c 1,142,143
 405 630 405 630 362 568 c 1,144,145
 306 490 306 490 306 436 c 2,146,-1
 306 431 l 1,147,148
 308 381 308 381 364 381 c 0,149,150
 394 381 394 381 428 407 c 1,151,152
 453 424 453 424 488 471 c 1,0,1
EndSplineSet
EndChar

StartChar: Y
Encoding: 89 89 27
Width: 727
GlyphClass: 2
Flags: W
LayerCount: 2
Fore
SplineSet
236 345 m 0,0,1
 269 372 269 372 313 435 c 0,2,3
 375 524 375 524 376 594 c 0,4,5
 376 611 376 611 371 630 c 1,6,-1
 371 633 l 2,7,8
 371 637 371 637 375 640 c 2,9,-1
 381 644 l 2,10,11
 382 645 382 645 385 645 c 0,12,13
 387 645 387 645 391 643 c 1,14,15
 422 614 422 614 422 567 c 0,16,17
 422 502 422 502 368 425 c 1,18,19
 325 367 325 367 267 328 c 1,20,21
 205 287 205 287 160 287 c 0,22,23
 75 287 75 287 60 354 c 0,24,25
 58 368 58 368 58 377 c 0,26,27
 58 434 58 434 109 507 c 1,28,29
 177 601 177 601 288 667.5 c 128,-1,30
 399 734 399 734 493 734 c 0,31,32
 612 734 612 734 648 664 c 0,33,34
 660 641 660 641 660 613 c 0,35,36
 660 557 660 557 616 497 c 1,37,-1
 515 353 l 2,38,39
 472 291 472 291 469 251 c 1,40,-1
 469 245 l 2,41,42
 469 216 469 216 496 216 c 0,43,44
 525 216 525 216 563 239 c 0,45,46
 568 243 568 243 579 256 c 0,47,48
 617 309 617 309 681 416.5 c 128,-1,49
 745 524 745 524 784 579 c 0,50,51
 796 596 796 596 812.5 611.5 c 128,-1,52
 829 627 829 627 852.5 642.5 c 128,-1,53
 876 658 876 658 890.5 667.5 c 128,-1,54
 905 677 905 677 935 694 c 128,-1,55
 965 711 965 711 974 716 c 0,56,57
 975 717 975 717 978 717 c 0,58,59
 985 717 985 717 986 713 c 2,60,-1
 988 705 l 2,61,62
 988 702 988 702 984 697 c 1,63,64
 888 640 888 640 838 568 c 0,65,66
 799 514 799 514 752.5 407.5 c 128,-1,67
 706 301 706 301 667 246 c 0,68,69
 591 140 591 140 472.5 61.5 c 128,-1,70
 354 -17 354 -17 257 -17 c 0,71,72
 189 -17 189 -17 143.5 3 c 128,-1,73
 98 23 98 23 98 62 c 0,74,75
 98 89 98 89 124 127 c 0,76,77
 144 157 144 157 182 157 c 0,78,79
 216 157 216 157 216 122 c 0,80,81
 216 108 216 108 197.5 95.5 c 128,-1,82
 179 83 179 83 160 83 c 0,83,84
 145 83 145 83 135 91 c 1,85,86
 130 80 130 80 130 67 c 0,87,88
 130 7 130 7 261 6 c 0,89,90
 322 6 322 6 395.5 61.5 c 128,-1,91
 469 117 469 117 539 203 c 1,92,93
 514 194 514 194 492 194 c 0,94,95
 425 194 425 194 407 246 c 0,96,97
 400 268 400 268 399 285 c 0,98,99
 399 323 399 323 427 364 c 1,100,-1
 528 507 l 1,101,102
 587 589 587 589 588 640 c 0,103,104
 588 649 588 649 587 654 c 0,105,106
 575 710 575 710 488.5 710.5 c 128,-1,107
 402 711 402 711 300 649 c 0,108,109
 199 588 199 588 134 497 c 0,110,111
 85 428 85 428 85 376 c 0,112,113
 85 366 85 366 86 360 c 0,114,115
 94 309 94 309 164 309 c 0,116,117
 193 309 193 309 236 345 c 0,0,1
EndSplineSet
EndChar

StartChar: Z
Encoding: 90 90 28
Width: 840
GlyphClass: 2
Flags: W
LayerCount: 2
Fore
SplineSet
384 407 m 1,0,1
 410 424 410 424 444 471 c 1,2,3
 483 527 483 527 483 570 c 0,4,5
 483 579 483 579 479 594 c 0,6,7
 478 595 478 595 478 597 c 0,8,9
 478 602 478 602 482 604 c 2,10,-1
 489 608 l 1,11,-1
 494 609 l 1,12,-1
 496 608 l 2,13,14
 497 608 497 608 498 608 c 0,15,16
 532 591 532 591 531 550 c 0,17,18
 531 508 531 508 498 461 c 0,19,20
 469 421 469 421 415 388 c 1,21,22
 364 358 364 358 315 358 c 0,23,24
 242 358 242 358 228 415 c 1,25,26
 226 427 226 427 226 435 c 0,27,28
 226 483 226 483 268 543 c 0,29,30
 323 622 323 622 419.5 678 c 128,-1,31
 516 734 516 734 598 734 c 0,32,33
 669 734 669 734 695 696 c 1,34,35
 705 679 705 679 706 662 c 0,36,37
 706 635 706 635 684 604 c 0,38,39
 670 582 670 582 670 565 c 0,40,41
 670 555 670 555 674 548 c 0,42,43
 685 529 685 529 720 525 c 1,44,45
 791 619 791 619 855.5 672 c 128,-1,46
 920 725 920 725 989 725 c 0,47,48
 1040 725 1040 725 1055 688 c 0,49,50
 1059 679 1059 679 1059 666 c 0,51,52
 1059 636 1059 636 1036 604 c 0,53,54
 1006 562 1006 562 914 531 c 1,55,56
 848 511 848 511 779 504 c 1,57,58
 724 398 724 398 703 367 c 1,59,-1
 820 367 l 2,60,61
 829 367 829 367 829 358 c 0,62,63
 829 357 829 357 827 353 c 2,64,-1
 823 348 l 1,65,66
 822 344 822 344 816 344 c 2,67,-1
 688 344 l 1,68,69
 565 175 565 175 416 73 c 1,70,71
 497 40 497 40 561 40 c 0,72,73
 608 40 608 40 663.5 68 c 128,-1,74
 719 96 719 96 750 139 c 1,75,76
 751 143 751 143 756 143 c 2,77,-1
 768 143 l 2,78,79
 776 143 776 143 776 135 c 0,80,81
 776 132 776 132 774 130 c 0,82,83
 732 70 732 70 662 26.5 c 128,-1,84
 592 -17 592 -17 532 -17 c 0,85,86
 517 -17 517 -17 503 -15.5 c 128,-1,87
 489 -14 489 -14 475.5 -9.5 c 128,-1,88
 462 -5 462 -5 453 -2.5 c 128,-1,89
 444 0 444 0 429.5 8.5 c 128,-1,90
 415 17 415 17 411 20 c 128,-1,91
 407 23 407 23 390.5 34 c 128,-1,92
 374 45 374 45 372 46 c 1,93,94
 277 -8 277 -8 199 -8 c 2,95,-1
 189 -8 l 2,96,97
 83 -8 83 -8 83 27 c 0,98,99
 83 39 83 39 96 58 c 0,100,101
 135 114 135 114 245 115 c 0,102,103
 302 115 302 115 372 90 c 1,104,105
 466 167 466 167 593 344 c 1,106,-1
 532 344 l 2,107,108
 524 344 524 344 524 352 c 0,109,110
 524 353 524 353 524 355 c 2,111,-1
 525 357 l 1,112,-1
 529 364 l 2,113,114
 532 367 532 367 537 367 c 2,115,-1
 609 367 l 1,116,-1
 703 503 l 1,117,118
 647 508 647 508 615 534 c 0,119,120
 583 559 583 559 584 581 c 0,121,122
 584 594 584 594 596 614 c 0,123,124
 600 620 600 620 609 634.5 c 128,-1,125
 618 649 618 649 622.5 656 c 128,-1,126
 627 663 627 663 630.5 672 c 128,-1,127
 634 681 634 681 634 687 c 0,128,129
 631 711 631 711 594 711 c 0,130,131
 518 711 518 711 433 659 c 0,132,133
 348 609 348 609 293 532 c 1,134,135
 253 475 253 475 253 434 c 0,136,137
 253 426 253 426 254 422 c 0,138,139
 262 381 262 381 319 381 c 0,140,141
 350 381 350 381 384 407 c 1,0,1
904 551 m 1,142,143
 986 579 986 579 1011 614 c 1,144,145
 1033 643 1033 643 1032 668 c 0,146,147
 1032 673 1032 673 1030 679 c 0,148,149
 1022 703 1022 703 985 702 c 0,150,151
 923 702 923 702 879.5 657 c 128,-1,152
 836 612 836 612 792 527 c 1,153,154
 849 534 849 534 904 551 c 1,142,143
241 92 m 0,155,156
 152 92 152 92 121 49 c 0,157,158
 115 40 115 40 115 33 c 0,159,160
 115 21 115 21 135.5 17.5 c 128,-1,161
 156 14 156 14 203 14 c 0,162,163
 265 14 265 14 340 66 c 1,164,165
 292 92 292 92 241 92 c 0,155,156
EndSplineSet
EndChar

StartChar: tie
Encoding: 8256 8256 29
Width: 284
GlyphClass: 2
Flags: W
LayerCount: 2
Fore
SplineSet
406 390 m 0,0,1
 448 450 448 450 531 490 c 1,2,3
 616 532 616 532 695 532 c 0,4,5
 776 532 776 532 805 487 c 0,6,7
 815 473 815 473 815 451 c 0,8,9
 815 417 815 417 790 381 c 0,10,11
 786 377 786 377 782 377 c 2,12,-1
 779 377 l 2,13,14
 778 377 778 377 774 379 c 0,15,16
 771 381 771 381 771 386 c 0,17,18
 771 389 771 389 772 390 c 0,19,20
 791 419 791 419 792 439 c 0,21,22
 792 455 792 455 781 468 c 1,23,24
 756 502 756 502 685 502 c 0,25,26
 610 502 610 502 535 466 c 0,27,28
 456 429 456 429 422 381 c 0,29,30
 420 377 420 377 415 377 c 2,31,-1
 413 377 l 2,32,33
 410 377 410 377 408 379 c 0,34,35
 404 381 404 381 403 386 c 0,36,37
 404 388 404 388 406 390 c 0,0,1
EndSplineSet
EndChar
